<?xml version="1.0" standalone="no"?>
<!DOCTYPE svg PUBLIC "-//W3C//DTD SVG 20010904//EN"
 "http://www.w3.org/TR/2001/REC-SVG-20010904/DTD/svg10.dtd">
<svg version="1.0" xmlns="http://www.w3.org/2000/svg"
 width="1587.000000pt" height="2245.000000pt" viewBox="0 0 1587.000000 2245.000000"
 preserveAspectRatio="xMidYMid meet">

<g transform="translate(0.000000,2245.000000) scale(0.100000,-0.100000)"
fill="#000000" stroke="none">
<path d="M9012 21863 l-111 -96 30 -42 31 -43 122 70 c66 39 124 74 129 77 5
5 -56 96 -87 128 -1 1 -52 -41 -114 -94z"/>
<path d="M8150 21614 c-269 -52 -454 -293 -410 -535 18 -98 55 -165 134 -245
120 -120 253 -165 421 -144 91 11 215 57 215 80 0 6 -18 46 -40 89 l-39 79
-43 -21 c-36 -18 -60 -22 -143 -22 -116 0 -156 16 -219 85 -50 56 -66 97 -66
170 0 142 87 236 240 261 66 10 161 -6 207 -37 22 -14 24 -12 67 74 l45 89
-37 21 c-77 42 -250 72 -332 56z"/>
<path d="M8922 21609 c-107 -21 -209 -87 -278 -182 -58 -78 -84 -164 -84 -276
0 -146 35 -236 128 -333 193 -203 547 -168 698 68 102 159 101 375 -3 531
-100 151 -283 227 -461 192z m160 -199 c51 -15 94 -53 126 -114 24 -45 27 -62
27 -146 0 -84 -3 -101 -27 -147 -33 -61 -76 -97 -138 -113 -106 -28 -215 20
-266 120 -26 51 -31 183 -10 248 42 125 160 187 288 152z"/>
<path d="M10910 21609 c-109 -21 -226 -104 -290 -206 -84 -132 -94 -322 -25
-468 84 -176 273 -274 476 -245 98 14 172 52 247 126 77 77 118 160 132 265
41 329 -225 590 -540 528z m178 -205 c88 -36 133 -111 140 -230 5 -99 -13
-163 -64 -223 -96 -111 -294 -82 -364 54 -21 42 -25 63 -25 140 0 79 4 97 28
148 29 59 75 102 124 117 46 14 121 11 161 -6z"/>
<path d="M9585 21558 c-6 -50 -75 -817 -75 -841 0 -15 13 -17 99 -17 94 0 99
1 104 23 3 12 13 131 23 264 10 133 21 240 24 238 3 -2 46 -119 95 -260 l90
-256 63 3 64 3 88 253 c86 245 100 281 100 251 0 -8 9 -122 20 -254 11 -132
20 -246 20 -252 0 -10 28 -13 105 -13 104 0 105 0 101 23 -3 12 -22 214 -42
450 l-38 427 -110 0 -111 0 -94 -248 c-51 -136 -97 -250 -100 -255 -4 -4 -33
61 -66 145 -32 84 -76 199 -97 256 l-40 102 -108 0 -109 0 -6 -42z"/>
<path d="M7328 21314 c-87 -46 -70 -190 25 -221 49 -16 92 -7 127 28 54 54 51
128 -6 179 -40 34 -99 40 -146 14z"/>
<path d="M13172 21019 c-101 -20 -192 -95 -241 -198 -37 -80 -37 -191 1 -274
103 -222 394 -269 558 -90 69 75 93 144 88 248 -5 98 -29 152 -95 219 -56 57
-100 81 -178 95 -66 12 -72 12 -133 0z m165 -192 c46 -31 73 -85 73 -144 0
-123 -132 -201 -247 -146 -41 19 -82 76 -90 127 -7 44 17 114 51 145 57 53
150 61 213 18z"/>
<path d="M7300 20971 c0 -70 -6 -78 -69 -111 -160 -81 -198 -232 -89 -355 106
-120 324 -141 443 -42 37 30 95 111 95 132 0 11 -149 89 -157 81 -2 -2 -12
-19 -22 -38 -35 -66 -132 -86 -177 -37 -22 25 -25 89 -4 114 7 9 36 28 63 42
89 45 97 58 97 168 l0 95 -90 0 -90 0 0 -49z"/>
<path d="M12506 20789 c-14 -17 -26 -41 -26 -55 0 -15 78 -140 205 -329 l205
-304 0 -355 0 -354 -162 -4 c-152 -3 -166 -5 -208 -28 -24 -14 -58 -44 -74
-68 -57 -81 -44 -213 28 -281 l23 -22 -32 -35 c-73 -79 -74 -208 -2 -287 l34
-36 -28 -27 c-67 -64 -78 -191 -24 -272 16 -24 49 -55 74 -70 l46 -27 655 -3
c479 -2 666 0 698 9 62 17 127 78 147 140 28 82 9 162 -50 221 l-27 27 36 42
c69 81 69 203 -1 280 l-34 37 27 29 c80 87 83 209 7 294 -62 68 -78 73 -265
77 l-168 4 0 352 0 353 38 54 c21 30 113 166 205 303 156 231 168 251 165 289
-4 56 -42 85 -95 71 -35 -8 -49 -26 -238 -306 l-200 -297 -221 -1 -221 0 -188
278 c-103 152 -200 289 -216 305 -40 37 -80 36 -113 -4z m914 -1074 l0 -325
-180 0 -180 0 0 325 0 325 180 0 180 0 0 -325z"/>
<path d="M4358 20075 c-221 -56 -378 -244 -378 -454 0 -281 263 -499 559 -462
77 10 171 39 205 64 17 12 15 18 -24 98 l-43 86 -56 -23 c-69 -29 -175 -32
-246 -7 -96 32 -175 143 -175 243 0 86 63 191 139 230 89 45 212 45 299 1 l38
-20 43 87 43 86 -24 17 c-70 53 -272 82 -380 54z"/>
<path d="M5148 20074 c-78 -18 -131 -47 -191 -102 -160 -149 -201 -368 -107
-570 122 -260 491 -331 701 -135 113 106 152 196 152 353 0 157 -39 247 -152
353 -107 100 -255 137 -403 101z m209 -209 c144 -72 174 -323 55 -448 -105
-111 -300 -74 -363 69 -42 94 -33 219 22 306 60 93 182 124 286 73z"/>
<path d="M9499 20072 c-334 -90 -449 -536 -203 -787 171 -173 465 -173 638 0
97 97 143 224 133 370 -12 187 -124 340 -296 406 -76 29 -190 33 -272 11z
m244 -219 c82 -57 125 -196 97 -311 -34 -142 -146 -214 -282 -181 -39 9 -63
23 -98 58 -54 55 -72 106 -72 207 0 115 50 204 137 246 61 29 163 20 218 -19z"/>
<path d="M10425 20080 c-128 -33 -212 -123 -222 -240 -11 -120 53 -204 213
-280 49 -23 104 -53 122 -67 29 -22 33 -30 30 -65 -4 -58 -38 -82 -115 -81
-63 1 -113 19 -182 65 -26 17 -47 26 -53 20 -5 -5 -29 -42 -53 -83 l-44 -74
22 -19 c35 -29 127 -72 187 -87 76 -18 204 -16 266 5 88 29 139 68 168 128 86
175 24 291 -218 408 -134 64 -155 84 -142 134 15 61 122 72 229 23 l57 -26 41
80 c46 93 47 92 -51 129 -96 37 -187 48 -255 30z"/>
<path d="M11055 20075 c-27 -8 -53 -14 -56 -15 -3 0 -27 -19 -53 -41 -43 -38
-86 -102 -86 -128 0 -10 130 -81 148 -81 5 0 16 16 25 35 48 102 197 89 197
-17 0 -46 -21 -70 -99 -111 -65 -35 -81 -68 -81 -172 l0 -75 90 0 90 0 0 39
c0 66 14 88 78 120 71 36 127 96 142 151 20 76 -14 170 -85 233 -69 62 -212
91 -310 62z"/>
<path d="M5800 19621 l0 -451 195 0 c106 0 217 5 244 11 139 30 222 157 193
296 -6 31 -23 71 -37 89 -26 34 -91 74 -120 74 -23 0 -18 16 10 34 55 36 87
148 66 232 -17 66 -44 100 -104 132 -51 26 -58 27 -249 30 l-198 4 0 -451z
m337 255 c58 -67 3 -156 -97 -156 l-30 0 0 96 0 97 52 -5 c40 -4 57 -11 75
-32z m28 -351 c36 -18 55 -51 55 -96 0 -68 -48 -99 -150 -99 l-60 0 0 105 0
105 61 0 c34 0 75 -7 94 -15z"/>
<path d="M6530 19621 l0 -451 100 0 100 0 2 177 3 178 135 -175 136 -175 214
-3 215 -2 34 90 33 90 172 0 172 0 33 -90 33 -90 207 0 208 0 18 248 c10 136
21 255 24 264 4 11 41 -82 96 -240 l90 -257 65 0 64 0 90 259 c75 214 92 253
97 230 4 -16 15 -136 24 -266 l18 -238 104 0 105 0 -6 48 c-6 47 -76 823 -76
843 0 6 -42 9 -111 7 l-112 -3 -88 -230 c-49 -126 -94 -241 -100 -255 -10 -22
-20 0 -109 230 l-97 255 -111 3 -110 3 -6 -53 c-3 -29 -19 -213 -36 -408 -17
-195 -33 -366 -36 -380 -4 -18 -50 86 -179 405 l-173 430 -98 0 -98 0 -171
-422 c-93 -233 -172 -423 -175 -422 -9 1 -260 308 -260 317 0 5 13 15 30 22
41 17 99 76 121 124 21 46 25 157 9 216 -14 50 -64 107 -124 138 -50 27 -55
27 -263 30 l-213 3 0 -450z m348 265 c42 -22 60 -79 43 -136 -15 -49 -50 -70
-133 -77 l-58 -6 0 123 0 123 58 -6 c32 -2 73 -12 90 -21z m847 -224 c26 -68
45 -125 42 -128 -2 -3 -47 -3 -99 -2 l-95 3 49 128 c28 71 51 127 53 125 2 -2
24 -58 50 -126z"/>
<path d="M0 16765 l0 -2785 298 0 c163 0 765 4 1337 10 572 5 1616 14 2320 20
704 5 1820 15 2480 21 2408 21 2810 25 2814 22 2 -1 -416 -211 -928 -467
l-931 -466 0 -43 c0 -80 -81 -116 -145 -65 l-28 22 -1408 -704 c-774 -388
-1407 -705 -1406 -707 1 -1 1078 -7 2392 -12 1315 -6 3274 -15 4355 -21 1081
-5 2585 -12 3343 -16 l1377 -6 0 2896 0 2896 -2847 -1424 -2848 -1423 -280
137 c-154 75 -836 413 -1515 749 -679 337 -1499 743 -1822 903 l-587 291 -23
-28 c-31 -35 -88 -38 -124 -4 -19 18 -24 33 -24 69 l0 47 -1132 561 c-3491
1728 -4511 2233 -4585 2271 l-83 41 0 -2785z m2355 491 c48 -21 69 -65 69
-151 0 -109 -34 -157 -111 -157 -63 0 -103 62 -103 157 0 83 34 145 85 158 11
3 21 5 23 6 1 0 18 -5 37 -13z m269 0 c45 -19 66 -67 66 -151 0 -105 -32 -155
-101 -157 -71 -2 -109 53 -109 158 0 87 31 144 85 157 11 2 21 5 23 6 1 0 17
-5 36 -13z m414 -19 c26 -24 42 -75 42 -132 0 -117 -65 -184 -146 -150 -48 20
-68 66 -68 150 0 84 20 130 67 150 38 16 74 10 105 -18z m236 19 c45 -19 66
-67 66 -151 0 -105 -32 -155 -101 -157 -71 -2 -109 53 -109 158 0 87 31 144
85 157 11 2 21 5 23 6 1 0 17 -5 36 -13z m290 -15 c63 -54 62 -218 -2 -274
-24 -22 -79 -25 -112 -7 -49 26 -70 164 -37 243 26 62 101 81 151 38z m-2767
-1 c51 -31 68 -65 67 -136 -1 -109 -51 -154 -171 -154 l-73 0 0 155 0 155 73
0 c54 0 80 -5 104 -20z m793 -135 c0 -131 -2 -155 -15 -155 -8 0 -15 7 -15 17
0 14 -2 14 -20 -2 -34 -31 -87 -25 -121 13 -24 27 -29 41 -29 87 0 46 5 60 29
87 34 38 87 44 121 13 20 -18 20 -18 20 38 0 44 3 57 15 57 13 0 15 -24 15
-155z m540 0 c0 -148 -1 -155 -20 -155 -19 0 -20 7 -20 125 l0 125 -26 -10
c-35 -14 -44 -13 -44 5 0 9 10 19 23 24 13 5 29 16 36 25 7 9 22 16 32 16 18
0 19 -10 19 -155z m-1042 51 c14 -13 26 -40 29 -64 l6 -42 -87 0 c-47 0 -86
-4 -86 -9 0 -4 9 -20 21 -35 23 -30 68 -35 93 -11 19 19 46 19 46 0 0 -23 -50
-50 -92 -49 -80 3 -126 88 -93 171 29 72 111 92 163 39z m211 19 c16 -8 31
-21 34 -29 8 -21 -23 -30 -37 -10 -8 10 -23 14 -46 12 -27 -2 -36 -8 -38 -26
-2 -12 3 -24 10 -26 77 -23 109 -40 114 -63 10 -38 -10 -70 -50 -82 -20 -5
-46 -7 -58 -4 -25 6 -68 41 -68 55 0 14 37 9 50 -7 7 -8 24 -15 39 -15 68 1
68 48 0 70 -64 21 -81 37 -77 74 2 24 11 35 38 48 43 22 53 22 89 3z m496 1
c38 -16 52 -36 56 -86 l4 -35 -82 -3 c-90 -3 -102 -13 -63 -52 24 -24 72 -26
90 -5 13 16 50 21 50 7 0 -15 -44 -49 -72 -56 -39 -9 -94 17 -112 53 -34 65
-11 151 47 176 40 18 41 18 82 1z m1003 -204 c3 -16 -2 -22 -17 -22 -24 0 -35
15 -27 36 9 23 40 13 44 -14z m-813 -306 c37 -16 55 -42 55 -79 0 -28 -45 -99
-94 -146 -20 -19 -36 -39 -36 -43 0 -4 32 -8 70 -8 56 0 70 -3 70 -15 0 -12
-18 -15 -100 -15 -121 0 -124 6 -47 88 78 84 97 111 97 144 0 54 -93 66 -106
13 -4 -16 -13 -25 -25 -25 -44 0 -6 74 46 89 17 5 31 10 33 10 1 1 18 -5 37
-13z m520 0 c48 -21 69 -65 69 -151 0 -109 -34 -157 -111 -157 -63 0 -103 62
-103 157 0 83 34 145 85 158 11 3 21 5 23 6 1 0 18 -5 37 -13z m413 -19 c26
-24 42 -75 42 -132 0 -117 -65 -184 -146 -150 -48 20 -68 66 -68 150 0 84 20
130 67 150 38 16 74 10 105 -18z m237 19 c48 -21 69 -65 69 -151 0 -109 -34
-157 -111 -157 -63 0 -103 62 -103 157 0 83 34 145 85 158 11 3 21 5 23 6 1 0
18 -5 37 -13z m269 0 c45 -19 66 -67 66 -151 0 -105 -32 -155 -101 -157 -71
-2 -109 53 -109 158 0 87 31 144 85 157 11 2 21 5 23 6 1 0 17 -5 36 -13z
m-2774 -53 c0 -56 0 -56 20 -38 29 26 85 25 112 -2 17 -18 22 -37 26 -117 5
-93 4 -96 -17 -96 -20 0 -21 5 -21 84 0 97 -12 119 -64 114 -41 -4 -56 -36
-56 -125 0 -58 -3 -73 -15 -73 -13 0 -15 24 -15 155 0 131 2 155 15 155 12 0
15 -13 15 -57z m1640 42 c0 -10 -16 -15 -62 -17 l-63 -3 -5 -41 -6 -41 43 5
c55 6 88 -15 104 -67 24 -80 -46 -152 -126 -130 -32 9 -65 42 -65 65 0 22 20
17 46 -11 28 -31 67 -32 94 -3 27 29 25 64 -6 95 -21 21 -31 24 -57 18 -67
-15 -72 -13 -70 25 2 19 5 54 8 78 l6 42 80 0 c62 0 79 -3 79 -15z m-900 -35
c0 -25 4 -30 25 -30 16 0 25 -6 25 -15 0 -9 -9 -15 -25 -15 -26 0 -26 0 -23
-82 3 -77 5 -83 26 -86 32 -5 28 -32 -5 -32 -50 0 -63 24 -63 115 0 74 -2 83
-20 88 -11 3 -20 10 -20 16 0 6 9 11 20 11 16 0 20 7 20 30 0 23 4 30 20 30
16 0 20 -7 20 -30z m-365 -51 c17 -16 21 -36 23 -114 4 -91 3 -95 -17 -95 -12
0 -21 5 -21 10 0 6 -14 3 -31 -6 -56 -29 -119 4 -119 62 0 41 25 60 93 69 51
8 67 25 47 50 -16 20 -60 19 -89 -1 -15 -11 -26 -13 -33 -6 -14 14 -1 31 36
48 38 17 84 10 111 -17z m230 1 c15 -15 17 -22 7 -32 -9 -9 -16 -8 -30 5 -21
20 -63 22 -80 5 -18 -18 4 -46 43 -54 19 -3 46 -15 60 -26 67 -52 -16 -137
-105 -107 -26 10 -50 35 -50 53 0 12 32 5 46 -9 18 -18 65 -20 82 -3 27 27 8
48 -60 62 -73 16 -79 101 -8 129 25 10 74 -2 95 -23z m390 -1 c17 -16 21 -36
23 -114 4 -91 3 -95 -17 -95 -12 0 -21 5 -21 10 0 6 -14 3 -31 -6 -56 -29
-119 4 -119 62 0 41 25 60 93 69 51 8 67 25 47 50 -16 20 -60 19 -89 -1 -15
-11 -26 -13 -33 -6 -14 14 -1 31 36 48 38 17 84 10 111 -17z m1038 -171 c7
-21 -4 -38 -23 -38 -23 0 -34 16 -26 35 7 18 43 20 49 3z m-1886 -323 c26 -7
73 -60 73 -81 0 -8 -9 -14 -20 -14 -11 0 -20 6 -20 13 0 37 -73 66 -118 48
-40 -17 -62 -60 -62 -121 0 -46 4 -56 35 -87 31 -31 40 -35 72 -30 38 7 73 32
73 54 0 7 9 13 20 13 30 0 24 -28 -14 -66 -33 -33 -54 -39 -115 -34 -89 7
-141 143 -92 239 35 68 89 89 168 66z m333 -15 c41 -28 61 -73 61 -135 0 -96
-52 -157 -134 -157 -56 0 -92 23 -118 73 -49 96 0 225 92 241 34 7 70 -1 99
-22z m303 0 c32 -26 44 -79 26 -121 -15 -37 -60 -59 -119 -59 l-40 0 0 -55 c0
-48 -2 -55 -20 -55 -19 0 -20 7 -20 155 l0 155 74 0 c59 0 78 -4 99 -20z m733
-1103 c3 -3 2 -23 -3 -44 -8 -33 -12 -38 -35 -35 -29 4 -58 -20 -58 -49 0 -16
7 -19 40 -19 l40 0 0 -45 0 -45 -40 0 -40 0 0 -160 0 -160 -55 0 -55 0 0 160
0 160 -30 0 c-29 0 -30 2 -30 45 0 43 1 45 30 45 28 0 30 2 30 38 0 74 63 125
147 119 29 -2 56 -6 59 -10z m1030 -12 c31 -47 -13 -96 -72 -81 -65 17 -47
106 21 106 26 0 39 -6 51 -25z m-2223 -19 c133 -55 142 -263 14 -325 -24 -11
-76 -23 -119 -27 l-78 -7 0 -83 0 -84 -60 0 -60 0 0 270 0 270 135 0 c91 0
146 -4 168 -14z m3787 -256 l0 -270 -60 0 -60 0 0 270 0 270 60 0 60 0 0 -270z
m9597 165 c56 -64 56 -196 -1 -262 -49 -57 -140 -27 -167 54 -17 52 -7 157 17
190 43 58 109 66 151 18z m239 20 c44 -18 66 -68 66 -150 0 -83 -22 -132 -68
-151 -32 -13 -42 -14 -72 -2 -50 19 -72 66 -72 151 0 84 21 134 64 153 39 17
40 17 82 -1z m287 -13 c34 -30 47 -69 47 -136 0 -82 -21 -130 -68 -152 -30
-14 -39 -14 -70 -2 -54 20 -77 66 -76 153 0 80 19 126 62 150 32 18 77 12 105
-13z m-2523 -17 c62 -59 64 -169 5 -233 -33 -36 -35 -37 -119 -41 l-86 -3 0
157 0 157 84 -3 c78 -4 87 -6 116 -34z m770 -120 c0 -148 -1 -155 -20 -155
-11 0 -20 4 -20 9 0 5 -14 3 -30 -6 -83 -41 -162 54 -131 158 20 65 90 97 139
63 22 -15 22 -15 22 35 0 44 3 51 20 51 19 0 20 -7 20 -155z m630 140 c0 -8
-32 -78 -70 -155 -55 -110 -74 -140 -90 -140 -11 0 -20 2 -20 5 0 3 29 64 65
135 l65 129 -78 3 c-64 3 -77 6 -80 21 -3 15 7 17 102 17 88 0 106 -3 106 -15z
m238 -2 c-3 -14 -15 -19 -65 -21 -53 -3 -62 -6 -67 -25 -13 -48 -9 -52 42 -49
44 3 51 1 75 -28 50 -59 23 -156 -49 -174 -36 -9 -89 10 -108 39 -32 49 -5 63
38 20 29 -29 52 -31 84 -9 15 10 22 25 22 47 0 60 -38 84 -100 66 -22 -7 -43
-9 -46 -6 -4 3 -3 40 1 82 l7 75 85 0 c75 0 84 -2 81 -17z m-12738 -70 l1 -38
15 27 c8 15 23 32 34 38 23 13 97 13 105 1 3 -5 -2 -28 -11 -50 -15 -37 -19
-41 -52 -41 -23 0 -44 -8 -59 -22 -22 -20 -23 -28 -23 -155 l0 -133 -60 0 -60
0 0 205 0 205 55 0 55 0 0 -37z m477 26 c35 -13 80 -55 101 -94 25 -47 22
-160 -6 -212 -72 -136 -286 -135 -352 2 -38 79 -19 219 36 266 54 47 154 64
221 38z m746 -3 c39 -16 82 -61 96 -99 6 -16 11 -51 11 -78 l0 -49 -135 0
c-129 0 -135 -1 -135 -20 0 -12 11 -32 25 -45 31 -32 93 -34 120 -5 14 15 31
20 72 20 52 0 54 -1 48 -22 -10 -34 -68 -85 -112 -97 -170 -47 -303 81 -264
255 14 62 57 119 106 140 40 17 127 17 168 0z m464 -12 c15 -11 36 -36 46 -55
l17 -34 -52 -7 c-47 -6 -53 -4 -70 18 -14 17 -29 24 -53 24 -32 0 -65 -21 -65
-40 0 -16 43 -38 90 -45 25 -4 64 -15 88 -26 80 -34 90 -125 21 -183 -82 -69
-251 -53 -300 28 -30 49 -25 56 33 56 39 0 57 -5 74 -21 27 -26 89 -28 112 -5
27 27 3 49 -74 67 -90 20 -128 41 -144 79 -15 36 -7 95 15 120 34 38 77 51
157 48 59 -2 83 -8 105 -24z m253 -179 l0 -205 -55 0 -55 0 0 205 0 205 55 0
55 0 0 -205z m368 186 c71 -36 103 -95 104 -186 1 -141 -91 -227 -225 -212
-95 12 -157 76 -172 179 -14 92 39 197 115 227 43 17 137 13 178 -8z m292 -16
c5 -24 7 -27 15 -14 19 30 59 49 105 49 57 0 88 -16 117 -59 22 -32 23 -44 23
-192 l0 -159 -55 0 -55 0 0 135 c0 133 -1 137 -26 162 -20 20 -31 24 -57 19
-57 -12 -62 -23 -65 -176 l-4 -140 -54 0 -54 0 0 206 0 205 52 -3 c50 -3 53
-5 58 -33z m613 21 c18 -7 43 -26 57 -40 24 -27 25 -33 28 -192 l3 -164 -55 0
c-54 0 -56 1 -56 27 l0 27 -31 -30 c-26 -25 -38 -29 -89 -29 -70 0 -108 23
-129 80 -13 32 -13 43 0 78 18 53 54 74 148 87 87 12 91 14 91 45 0 47 -62 59
-107 21 -24 -20 -36 -23 -76 -19 -29 4 -47 11 -47 19 0 20 51 76 85 90 40 17
137 18 178 0z m8121 -16 c32 -12 66 -65 66 -102 l0 -28 -85 0 c-69 0 -85 -3
-85 -15 0 -43 82 -73 110 -40 7 8 21 15 32 15 33 0 17 -33 -25 -54 -34 -16
-44 -17 -78 -7 -94 28 -108 178 -21 225 32 18 52 19 86 6z m240 0 c33 -12 53
-48 31 -56 -9 -4 -21 1 -28 11 -19 25 -81 17 -85 -12 -3 -19 5 -24 52 -38 65
-19 78 -33 74 -77 -2 -27 -10 -36 -41 -52 -33 -16 -45 -17 -78 -7 -33 10 -59
34 -59 55 0 12 38 5 50 -9 7 -8 24 -15 39 -15 67 1 69 48 2 67 -56 16 -81 39
-81 73 0 52 64 83 124 60z m513 -10 c22 -13 35 -31 43 -60 6 -22 8 -45 5 -50
-3 -6 -42 -10 -86 -10 -64 0 -79 -3 -79 -15 0 -43 82 -73 110 -40 12 14 50 21
50 9 0 -20 -26 -45 -58 -55 -31 -9 -45 -8 -74 4 -53 22 -71 56 -66 122 8 98
79 142 155 95z m776 -182 c7 -21 -4 -38 -23 -38 -23 0 -34 16 -26 35 7 18 43
20 49 3z m-703 -323 c81 -42 61 -129 -55 -235 l-27 -25 69 -5 c54 -4 68 -8 71
-22 3 -16 -7 -18 -97 -18 -91 0 -101 2 -101 18 0 10 12 29 26 43 65 59 124
140 124 170 0 55 -92 68 -106 14 -4 -16 -13 -25 -25 -25 -40 0 -14 64 34 85
41 18 52 18 87 0z m287 -20 c56 -64 56 -196 -1 -262 -49 -57 -140 -27 -167 54
-17 52 -7 157 17 190 43 58 109 66 151 18z m239 20 c44 -18 66 -68 66 -150 0
-83 -22 -132 -68 -151 -32 -13 -42 -14 -72 -2 -50 19 -72 66 -72 151 0 84 21
134 64 153 39 17 40 17 82 -1z m411 -20 c56 -64 56 -196 -1 -262 -49 -57 -140
-27 -167 54 -17 52 -7 157 17 190 43 58 109 66 151 18z m239 20 c44 -18 66
-68 66 -150 0 -83 -22 -132 -68 -151 -32 -13 -42 -14 -72 -2 -50 19 -72 66
-72 151 0 84 21 134 64 153 39 17 40 17 82 -1z m287 -13 c34 -30 47 -69 47
-136 0 -82 -21 -130 -68 -152 -30 -14 -39 -14 -70 -2 -54 20 -77 66 -76 153 0
80 19 126 62 150 32 18 77 12 105 -13z m-2793 -33 c0 -50 0 -50 22 -35 32 23
63 20 95 -8 26 -23 28 -29 31 -120 4 -92 3 -96 -17 -96 -20 0 -21 5 -21 78 0
108 -30 144 -91 112 -17 -9 -19 -22 -19 -100 0 -83 -1 -90 -20 -90 -19 0 -20
7 -20 155 0 148 1 155 20 155 17 0 20 -7 20 -51z m730 1 c0 -25 4 -30 25 -30
16 0 25 -6 25 -15 0 -9 -9 -15 -25 -15 -25 0 -25 -1 -25 -80 0 -77 1 -80 25
-86 34 -8 33 -34 -2 -34 -50 0 -63 24 -63 117 0 76 -2 83 -20 83 -11 0 -20 7
-20 15 0 8 9 15 20 15 16 0 20 7 20 30 0 23 4 30 20 30 16 0 20 -7 20 -30z
m-362 -55 c19 -23 22 -37 22 -116 0 -82 -1 -89 -20 -89 -11 0 -20 4 -20 9 0 5
-14 3 -30 -6 -57 -28 -120 5 -120 63 0 41 27 62 92 70 55 8 63 15 48 44 -13
24 -61 27 -84 5 -27 -28 -59 -8 -35 22 34 41 110 40 147 -2z m205 23 c12 -6
27 -18 34 -27 18 -24 -13 -38 -37 -16 -26 24 -74 16 -78 -13 -2 -12 3 -24 10
-26 77 -23 109 -40 114 -63 16 -60 -51 -106 -121 -83 -30 10 -55 35 -55 54 0
12 38 5 50 -9 16 -19 64 -19 80 0 18 22 6 42 -32 50 -64 14 -88 32 -88 69 0
59 68 94 123 64z m415 -23 c19 -23 22 -37 22 -116 0 -82 -1 -89 -20 -89 -11 0
-20 4 -20 9 0 5 -14 3 -30 -6 -57 -28 -120 5 -120 63 0 41 27 62 92 70 55 8
63 15 48 44 -13 24 -61 27 -84 5 -27 -28 -59 -8 -35 22 34 41 110 40 147 -2z
m1045 -167 c7 -21 -4 -38 -23 -38 -23 0 -34 16 -26 35 7 18 43 20 49 3z m160
-330 c17 -9 57 -65 57 -80 0 -19 -38 -5 -58 21 -27 37 -71 47 -111 27 -40 -21
-54 -49 -54 -111 0 -62 14 -90 54 -111 40 -20 84 -10 111 27 20 27 58 40 58
20 0 -25 -50 -77 -85 -89 -110 -37 -206 74 -176 201 22 93 122 139 204 95z
m316 -6 c67 -49 82 -175 28 -245 -73 -97 -223 -50 -241 74 -20 144 108 246
213 171z m290 3 c34 -17 41 -33 41 -89 0 -61 -32 -88 -110 -94 l-60 -4 0 -54
c0 -47 -2 -54 -20 -54 -19 0 -20 7 -20 155 l0 155 70 0 c43 0 82 -6 99 -15z
m-1510 -1015 c-39 -56 -45 -60 -80 -60 -22 0 -39 2 -39 5 0 2 11 29 24 60 l25
55 56 0 56 0 -42 -60z m-1689 -20 l0 -50 -80 0 -80 0 0 -225 0 -225 -60 0 -60
0 0 225 0 225 -85 0 -85 0 0 43 c0 24 3 47 7 50 3 4 105 7 225 7 l218 0 0 -50z
m1998 -227 l2 -273 -60 0 -60 0 0 275 0 276 58 -3 57 -3 3 -272z m-1643 114
c52 -29 85 -89 88 -159 l2 -53 -137 -3 c-86 -2 -138 -6 -138 -13 0 -19 29 -67
45 -73 35 -13 85 -6 107 16 17 17 31 21 67 19 25 -2 48 -4 50 -7 11 -11 -28
-69 -62 -92 -35 -23 -51 -27 -117 -27 -67 0 -82 4 -118 28 -127 84 -109 321
28 376 47 19 141 13 185 -12z m446 3 c45 -23 79 -72 79 -112 0 -27 -2 -28 -50
-28 -39 0 -52 4 -57 18 -16 45 -60 64 -108 46 -25 -10 -45 -59 -45 -111 0 -59
17 -94 54 -111 36 -18 84 0 92 34 6 22 12 24 60 24 48 0 54 -2 54 -20 0 -28
-23 -70 -52 -96 -67 -61 -195 -57 -267 9 -93 86 -75 277 32 342 55 33 149 35
208 5z m269 -12 c1 -27 2 -30 11 -15 16 28 64 47 119 47 43 0 55 -5 85 -32 44
-41 55 -94 55 -259 l0 -119 -60 0 -60 0 0 124 c0 69 -4 136 -10 151 -20 53
-104 53 -129 -1 -6 -14 -11 -78 -11 -149 l0 -125 -55 0 -55 0 0 205 0 205 55
0 55 0 0 -32z m623 18 c117 -48 153 -224 70 -335 -57 -75 -189 -93 -272 -38
-100 67 -114 258 -25 339 53 48 157 64 227 34z m660 0 c117 -48 153 -224 70
-335 -57 -75 -189 -93 -272 -38 -100 67 -114 258 -25 339 53 48 157 64 227 34z
m423 -20 l34 -34 0 34 0 34 55 0 55 0 0 -231 c0 -260 -2 -270 -73 -309 -54
-31 -153 -38 -212 -16 -44 17 -95 66 -95 91 0 22 90 25 120 4 41 -29 101 -28
130 1 15 15 20 33 20 71 l0 52 -21 -26 c-46 -59 -155 -55 -215 9 -29 30 -54
100 -54 149 0 48 25 121 53 152 38 43 58 52 121 52 42 1 52 -3 82 -33z m507
20 c117 -48 153 -224 70 -335 -57 -75 -189 -93 -272 -38 -100 67 -114 258 -25
339 53 48 157 64 227 34z"/>
<path d="M2270 17198 c-37 -61 -21 -194 25 -212 64 -24 108 57 90 164 -14 81
-78 108 -115 48z"/>
<path d="M2541 17204 c-30 -39 -30 -159 0 -198 27 -34 64 -32 92 6 16 21 21
43 21 93 0 50 -5 72 -21 93 -28 38 -65 40 -92 6z"/>
<path d="M2937 17218 c-55 -42 -46 -214 12 -233 53 -16 91 33 91 118 0 99 -50
154 -103 115z"/>
<path d="M3191 17204 c-30 -39 -30 -159 0 -198 27 -34 64 -32 92 6 16 21 21
43 21 93 0 50 -5 72 -21 93 -28 38 -65 40 -92 6z"/>
<path d="M3466 17215 c-60 -60 -31 -235 38 -235 45 0 61 34 61 125 0 67 -4 87
-19 104 -22 25 -58 27 -80 6z"/>
<path d="M660 17104 l0 -127 53 7 c28 4 62 14 74 21 44 29 54 126 19 181 -16
24 -70 44 -118 44 l-28 0 0 -126z"/>
<path d="M1445 17130 c-12 -13 -18 -36 -18 -65 0 -53 23 -85 63 -85 40 0 63
32 63 85 0 53 -23 85 -63 85 -15 0 -35 -9 -45 -20z"/>
<path d="M984 17142 c-6 -4 -16 -17 -23 -29 -12 -23 -11 -23 54 -23 48 0 65 4
65 13 0 34 -65 60 -96 39z"/>
<path d="M1707 17132 c-31 -34 -21 -42 48 -42 57 0 64 2 58 18 -15 43 -77 57
-106 24z"/>
<path d="M2420 16608 c-37 -61 -21 -194 25 -212 64 -24 108 57 90 164 -14 81
-78 108 -115 48z"/>
<path d="M2817 16628 c-55 -42 -46 -214 12 -233 53 -16 91 33 91 118 0 99 -50
154 -103 115z"/>
<path d="M3070 16608 c-37 -61 -21 -194 25 -212 64 -24 108 57 90 164 -14 81
-78 108 -115 48z"/>
<path d="M3341 16614 c-30 -39 -30 -159 0 -198 27 -34 64 -32 92 6 16 21 21
43 21 93 0 50 -5 72 -21 93 -28 38 -65 40 -92 6z"/>
<path d="M965 16465 c-5 -2 -23 -6 -38 -9 -24 -6 -28 -11 -25 -34 3 -23 8 -27
40 -30 28 -2 40 2 52 20 30 42 16 68 -29 53z"/>
<path d="M1585 16465 c-5 -2 -23 -6 -38 -9 -24 -6 -28 -11 -25 -34 3 -23 8
-27 40 -30 28 -2 40 2 52 20 30 42 16 68 -29 53z"/>
<path d="M1014 16039 c-33 -17 -54 -62 -54 -119 0 -46 4 -56 35 -87 31 -31 40
-35 72 -30 46 8 71 31 83 79 14 48 4 103 -24 134 -24 28 -80 39 -112 23z"/>
<path d="M1300 15986 l0 -66 49 0 c40 0 53 4 65 22 38 53 12 96 -61 105 l-53
6 0 -67z"/>
<path d="M790 14761 l0 -91 50 0 c60 0 94 15 109 47 17 37 13 69 -12 99 -20
23 -34 28 -85 32 l-62 4 0 -91z"/>
<path d="M14257 14818 c-59 -46 -45 -218 19 -234 56 -14 99 84 75 174 -18 66
-55 89 -94 60z"/>
<path d="M14514 14809 c-16 -17 -19 -36 -19 -106 0 -78 2 -86 24 -104 31 -25
59 -21 83 12 27 36 27 152 0 188 -25 34 -62 38 -88 10z"/>
<path d="M14786 14811 c-42 -46 -42 -162 -1 -209 20 -23 27 -25 51 -17 42 15
55 49 52 134 -3 63 -7 76 -27 92 -30 24 -53 24 -75 0z"/>
<path d="M12200 14705 l0 -115 53 0 c65 0 93 18 108 69 15 50 4 107 -26 137
-20 20 -34 24 -80 24 l-55 0 0 -115z"/>
<path d="M12984 14729 c-43 -47 -14 -149 43 -149 55 0 86 93 47 148 -20 28
-65 29 -90 1z"/>
<path d="M1607 14705 c-44 -44 -45 -158 -2 -201 63 -63 142 3 133 112 -6 74
-28 104 -78 104 -21 0 -45 -7 -53 -15z"/>
<path d="M2365 14719 c-25 -14 -45 -39 -45 -56 0 -10 21 -13 80 -13 71 0 80 2
80 18 0 41 -75 74 -115 51z"/>
<path d="M3443 14715 c-77 -32 -67 -211 12 -231 64 -16 112 50 102 138 -10 83
-53 118 -114 93z"/>
<path d="M4362 14568 c-31 -7 -46 -16 -55 -35 -10 -22 -8 -28 12 -44 49 -40
121 -6 121 57 0 38 -4 39 -78 22z"/>
<path d="M12510 14730 c-33 -33 -24 -40 45 -40 36 0 65 3 65 8 0 4 -7 18 -16
30 -19 28 -67 29 -94 2z"/>
<path d="M13250 14730 c-32 -32 -24 -40 40 -40 64 0 76 12 44 44 -21 22 -60
20 -84 -4z"/>
<path d="M13607 14228 c-59 -46 -45 -218 19 -234 56 -14 99 84 75 174 -18 66
-55 89 -94 60z"/>
<path d="M13864 14219 c-16 -17 -19 -36 -19 -106 0 -78 2 -86 24 -104 31 -25
59 -21 83 12 27 36 27 152 0 188 -25 34 -62 38 -88 10z"/>
<path d="M14257 14228 c-59 -46 -45 -218 19 -234 56 -14 99 84 75 174 -18 66
-55 89 -94 60z"/>
<path d="M14514 14219 c-16 -17 -19 -36 -19 -106 0 -78 2 -86 24 -104 31 -25
59 -21 83 12 27 36 27 152 0 188 -25 34 -62 38 -88 10z"/>
<path d="M14786 14221 c-42 -46 -42 -162 -1 -209 20 -23 27 -25 51 -17 42 15
55 49 52 134 -3 63 -7 76 -27 92 -30 24 -53 24 -75 0z"/>
<path d="M12395 14065 c-5 -2 -22 -6 -37 -9 -21 -5 -28 -12 -28 -30 0 -40 56
-50 90 -16 37 37 21 71 -25 55z"/>
<path d="M13015 14065 c-5 -2 -22 -6 -37 -9 -21 -5 -28 -12 -28 -30 0 -40 56
-50 90 -16 37 37 21 71 -25 55z"/>
<path d="M14473 13631 c-36 -23 -47 -48 -46 -112 1 -57 15 -84 54 -105 38 -19
79 -11 110 22 20 22 24 36 24 90 0 54 -4 67 -25 89 -35 34 -77 40 -117 16z"/>
<path d="M14760 13580 l0 -60 49 0 c59 0 81 18 81 64 0 45 -16 56 -77 56 l-53
0 0 -60z"/>
<path d="M11914 12450 c-21 -8 -54 -47 -54 -62 0 -5 38 -8 84 -8 78 0 84 1 79
19 -11 42 -68 68 -109 51z"/>
<path d="M13241 12424 c-44 -56 -33 -173 20 -203 33 -18 74 -8 94 23 34 51 31
150 -6 187 -28 28 -83 25 -108 -7z"/>
<path d="M13901 12424 c-44 -56 -33 -173 20 -203 33 -18 74 -8 94 23 34 51 31
150 -6 187 -28 28 -83 25 -108 -7z"/>
<path d="M14365 12426 c-30 -30 -41 -87 -26 -136 13 -44 27 -58 68 -66 23 -4
36 0 59 19 26 23 29 31 29 90 0 55 -4 69 -24 91 -31 33 -74 34 -106 2z"/>
<path d="M14831 12424 c-44 -56 -33 -173 20 -203 33 -18 74 -8 94 23 34 51 31
150 -6 187 -28 28 -83 25 -108 -7z"/>
<path d="M11078 19384 c-87 -46 -70 -190 25 -221 49 -16 92 -7 127 29 54 54
49 132 -12 183 -34 29 -97 33 -140 9z"/>
<path d="M10286 18774 c-23 -23 -20 -51 9 -70 23 -15 27 -15 50 0 27 18 33 54
13 74 -17 17 -54 15 -72 -4z"/>
<path d="M10532 18775 c-33 -15 -62 -63 -62 -105 0 -15 -7 -20 -25 -20 -22 0
-25 -4 -25 -35 0 -31 3 -35 25 -35 l25 0 0 -140 0 -140 50 0 50 0 0 140 0 140
35 0 c33 0 35 2 35 35 0 33 -2 35 -35 35 -27 0 -35 4 -35 18 0 24 19 42 46 42
38 0 48 64 12 74 -35 9 -60 7 -96 -9z"/>
<path d="M3981 18748 c-140 -69 -161 -297 -37 -406 79 -69 219 -62 286 14 29
34 50 73 50 95 0 5 -21 9 -47 9 -43 0 -50 -3 -65 -30 -31 -55 -116 -65 -164
-19 -58 54 -56 184 2 243 22 21 36 26 76 26 40 0 53 -5 73 -26 14 -15 25 -33
25 -40 0 -10 15 -14 50 -14 33 0 50 4 50 13 -1 21 -36 91 -56 109 -58 51 -169
63 -243 26z"/>
<path d="M8000 18690 c0 -36 -2 -40 -25 -40 -22 0 -25 -4 -25 -35 0 -31 3 -35
25 -35 l25 0 0 -106 c0 -148 16 -173 114 -174 49 0 57 2 52 16 -3 9 -6 24 -6
34 0 11 -10 20 -30 24 l-30 6 0 100 0 100 30 0 c28 0 30 3 30 35 0 32 -2 35
-30 35 -28 0 -30 2 -30 40 l0 40 -50 0 -50 0 0 -40z"/>
<path d="M9400 18690 c0 -36 -2 -40 -25 -40 -22 0 -25 -4 -25 -35 0 -30 3 -35
24 -35 24 0 24 -1 28 -116 3 -113 4 -116 31 -140 22 -19 39 -24 84 -24 53 0
55 1 49 23 -3 12 -6 27 -6 33 0 6 -13 14 -30 18 l-30 6 0 100 0 100 30 0 c28
0 30 3 30 35 0 32 -2 35 -30 35 -28 0 -30 2 -30 40 l0 40 -50 0 -50 0 0 -40z"/>
<path d="M4422 18633 c-18 -9 -42 -28 -52 -44 -38 -52 -43 -157 -12 -216 49
-90 202 -106 271 -27 78 88 58 238 -39 286 -44 22 -124 23 -168 1z m113 -59
c44 -17 59 -116 25 -171 -34 -57 -102 -41 -120 28 -25 90 27 169 95 143z"/>
<path d="M4740 18475 l0 -175 50 0 50 0 0 118 c0 136 10 156 71 150 48 -4 59
-33 59 -160 l0 -108 45 0 45 0 0 141 0 141 -34 34 c-30 30 -40 34 -84 34 -43
0 -55 -5 -81 -31 l-31 -31 0 31 c0 30 -1 31 -45 31 l-45 0 0 -175z"/>
<path d="M5212 18633 c-18 -9 -42 -28 -52 -44 -38 -52 -43 -157 -12 -216 49
-90 202 -106 271 -27 78 88 58 238 -39 286 -44 22 -124 23 -168 1z m113 -59
c44 -17 59 -116 25 -171 -34 -57 -102 -41 -120 28 -25 90 27 169 95 143z"/>
<path d="M5597 18628 c-100 -58 -103 -248 -5 -308 73 -44 165 -33 217 25 17
20 31 47 31 60 0 23 -4 25 -45 25 -31 0 -45 -4 -45 -13 0 -22 -34 -47 -63 -47
-40 0 -67 42 -67 107 0 44 5 58 25 78 13 14 32 25 42 25 25 0 63 -28 63 -46 0
-10 12 -14 45 -14 41 0 45 2 45 24 0 29 -33 72 -70 91 -43 22 -128 19 -173 -7z"/>
<path d="M5982 18633 c-63 -31 -98 -117 -82 -202 18 -102 115 -159 220 -131
45 12 100 58 100 83 0 24 -77 27 -97 5 -26 -29 -87 -24 -112 8 -39 50 -32 54
100 54 l122 0 -7 53 c-8 59 -28 92 -76 125 -40 27 -119 30 -168 5z m137 -79
c12 -15 21 -31 21 -35 0 -5 -34 -9 -75 -9 -41 0 -75 4 -75 9 0 4 9 20 21 35
15 19 30 26 54 26 24 0 39 -7 54 -26z"/>
<path d="M6440 18475 l0 -175 50 0 50 0 0 118 c0 131 9 152 63 152 49 0 57
-20 57 -151 l0 -119 50 0 50 0 0 130 c0 179 -23 220 -123 220 -40 0 -53 -5
-78 -29 l-29 -29 0 29 c0 28 -2 29 -45 29 l-45 0 0 -175z"/>
<path d="M6840 18509 l0 -141 34 -34 c45 -45 108 -48 155 -8 l31 26 0 -26 c0
-25 3 -26 50 -26 l50 0 0 175 0 175 -50 0 -50 0 0 -115 c0 -103 -2 -117 -21
-136 -28 -28 -79 -23 -96 11 -8 15 -13 66 -13 133 l0 107 -45 0 -45 0 0 -141z"/>
<path d="M7302 18630 c-95 -58 -108 -216 -23 -293 67 -60 178 -58 240 4 42 41
40 56 -9 61 -30 3 -45 -1 -57 -14 -37 -41 -133 -10 -133 42 0 19 7 20 121 20
l120 0 -6 48 c-15 99 -71 152 -164 152 -38 0 -66 -6 -89 -20z m136 -66 c12 -8
22 -24 22 -35 0 -17 -7 -19 -70 -19 -77 0 -85 8 -48 47 25 27 64 30 96 7z"/>
<path d="M7673 18635 c-31 -13 -63 -59 -63 -90 0 -54 53 -94 147 -110 46 -7
66 -24 57 -48 -5 -14 -33 -27 -62 -27 -7 0 -23 10 -36 23 -18 18 -31 22 -68
19 -53 -4 -54 -16 -10 -64 76 -82 257 -44 278 58 7 37 -31 88 -73 98 -112 27
-134 37 -131 59 4 31 81 38 99 9 10 -16 20 -19 53 -14 23 2 42 6 44 7 11 9
-33 65 -62 79 -41 19 -129 20 -173 1z"/>
<path d="M8230 18475 l0 -175 45 0 45 0 0 110 c0 106 1 112 26 137 18 18 33
24 53 21 24 -4 30 0 40 27 17 49 14 55 -27 55 -40 0 -63 -12 -80 -45 -10 -18
-11 -17 -12 13 0 31 -1 32 -45 32 l-45 0 0 -175z"/>
<path d="M8562 18634 c-27 -14 -62 -58 -62 -77 0 -2 19 -7 42 -10 34 -5 45 -2
56 14 15 22 71 26 90 7 16 -16 15 -45 -1 -51 -8 -3 -39 -8 -71 -12 -31 -4 -71
-17 -89 -29 -28 -19 -32 -28 -35 -70 -4 -61 16 -92 67 -106 47 -12 93 -4 120
21 26 24 31 24 31 -1 0 -17 7 -20 46 -20 l46 0 -4 140 -3 140 -32 32 c-29 29
-39 33 -100 35 -49 3 -77 -1 -101 -13z m138 -204 c0 -17 -9 -39 -21 -51 -39
-39 -121 -6 -93 39 9 14 69 37 107 41 4 1 7 -12 7 -29z"/>
<path d="M8925 18635 c-42 -22 -55 -43 -55 -90 0 -56 30 -82 116 -103 95 -24
114 -63 37 -78 -25 -5 -37 -1 -56 18 -19 19 -32 23 -65 20 -51 -5 -54 -21 -14
-62 70 -70 226 -58 267 20 40 78 4 125 -117 149 -31 7 -62 19 -68 27 -31 37
60 63 93 26 12 -13 27 -17 57 -14 22 2 40 9 40 16 0 20 -30 55 -60 71 -38 19
-137 19 -175 0z"/>
<path d="M9694 18636 c-32 -14 -64 -50 -64 -72 0 -7 17 -14 38 -17 27 -3 43 1
58 14 28 26 80 25 95 -2 16 -31 0 -42 -82 -56 -80 -13 -115 -38 -125 -87 -12
-68 34 -118 111 -120 30 -1 52 6 74 22 30 22 31 22 31 2 0 -17 6 -20 45 -20
l45 0 0 138 c0 151 -6 169 -60 197 -36 19 -124 19 -166 1z m136 -205 c0 -20
-9 -36 -26 -50 -45 -35 -94 -25 -94 19 0 23 6 30 33 39 30 9 62 17 80 20 4 0
7 -12 7 -28z"/>
<path d="M10000 18475 l0 -175 50 0 50 0 0 115 c0 103 2 117 21 136 14 14 30
20 49 17 25 -4 30 0 43 33 8 21 12 40 9 43 -3 3 -22 6 -43 6 -29 0 -43 -6 -63
-31 l-26 -31 0 31 c0 30 -1 31 -45 31 l-45 0 0 -175z"/>
<path d="M10270 18475 l0 -175 50 0 50 0 0 175 0 175 -50 0 -50 0 0 -175z"/>
<path d="M10764 18636 c-32 -14 -64 -50 -64 -72 0 -7 17 -14 38 -17 27 -3 43
1 58 14 28 26 80 25 95 -2 16 -31 0 -42 -82 -56 -80 -13 -115 -38 -125 -87
-12 -68 34 -118 111 -120 30 -1 52 6 74 22 30 22 31 22 31 2 0 -17 6 -20 45
-20 l45 0 0 138 c0 151 -6 169 -60 197 -36 19 -124 19 -166 1z m136 -205 c0
-20 -9 -36 -26 -50 -45 -35 -94 -25 -94 19 0 23 6 30 33 39 30 9 62 17 80 20
4 0 7 -12 7 -28z"/>
<path d="M11123 18635 c-31 -13 -63 -59 -63 -90 0 -54 53 -94 147 -110 46 -7
66 -24 57 -48 -5 -14 -33 -27 -62 -27 -7 0 -23 10 -36 23 -18 18 -31 22 -68
19 -53 -4 -54 -16 -10 -64 76 -82 257 -44 278 58 7 37 -31 88 -73 98 -112 27
-134 37 -131 59 4 31 81 38 99 9 10 -16 20 -19 53 -14 23 2 42 6 44 7 11 9
-33 65 -62 79 -41 19 -129 20 -173 1z"/>
<path d="M10250 16692 c-13 -10 -23 -33 -27 -59 -5 -35 -2 -45 20 -67 33 -33
97 -36 127 -6 29 29 27 94 -5 125 -29 30 -83 33 -115 7z"/>
<path d="M11685 16425 c-17 -16 -25 -35 -25 -60 0 -25 8 -44 25 -60 16 -17 35
-25 60 -25 25 0 44 8 60 25 17 16 25 35 25 60 0 25 -8 44 -25 60 -16 17 -35
25 -60 25 -25 0 -44 -8 -60 -25z"/>
<path d="M1421 13524 c-22 -28 -34 -65 -52 -159 -7 -33 -14 -63 -18 -66 -3 -4
-76 33 -160 82 -155 89 -201 105 -229 77 -22 -22 -14 -72 16 -100 30 -29 148
-105 211 -137 23 -12 41 -25 41 -29 0 -5 -27 -21 -61 -38 -67 -32 -89 -55 -89
-95 0 -49 68 -79 103 -45 7 8 42 28 77 46 62 31 63 31 56 8 -4 -12 -10 -79
-13 -148 -5 -118 -4 -126 16 -147 28 -30 66 -29 96 1 18 18 25 39 30 92 4 38
10 96 14 129 3 33 11 60 16 60 6 0 89 -40 185 -88 191 -96 238 -111 270 -82
27 24 25 67 -2 92 -13 11 -105 63 -205 114 -99 52 -182 98 -183 104 -2 5 61
44 138 85 77 41 150 84 161 94 25 23 27 53 5 85 -28 39 -86 25 -216 -54 -60
-36 -111 -65 -112 -63 -2 2 3 30 10 63 18 83 17 102 -6 125 -29 29 -74 26 -99
-6z"/>
<path d="M0 8585 l0 -2484 113 53 c61 30 600 294 1197 588 597 295 1767 871
2600 1281 833 410 1931 950 2439 1201 l924 455 41 -21 c23 -11 519 -265 1104
-565 l1062 -546 0 -34 c0 -69 75 -105 139 -67 27 16 36 12 1467 -724 791 -406
2098 -1078 2904 -1492 806 -413 1556 -799 1666 -856 111 -57 205 -104 208
-104 3 0 6 1147 6 2549 l0 2549 -242 6 c-134 3 -1109 10 -2168 16 -2271 13
-4663 29 -4667 33 -1 2 245 124 547 272 l549 270 -512 7 c-583 7 -1715 20
-4372 48 -1017 11 -2448 27 -3180 35 -731 8 -1441 15 -1577 15 l-248 0 0
-2485z m1420 1910 c0 -3 -16 -30 -36 -60 -35 -52 -39 -55 -80 -55 l-43 0 26
60 26 60 54 0 c29 0 53 -2 53 -5z m1148 -11 c44 -31 17 -104 -39 -104 -36 0
-59 24 -59 60 0 30 30 60 60 60 9 0 26 -7 38 -16z m-1510 -66 l3 -48 -85 0
-86 0 0 -225 0 -225 -60 0 -60 0 0 225 0 225 -85 0 -85 0 0 43 c0 24 3 47 7
51 4 3 106 5 227 4 l221 -3 3 -47z m329 -99 c64 -20 113 -103 113 -191 l0 -38
-141 0 -140 0 6 -22 c19 -64 106 -90 148 -44 19 21 29 23 74 19 51 -5 51 -6
42 -32 -26 -68 -102 -106 -198 -99 -116 8 -181 83 -181 209 1 164 117 247 277
198z m449 0 c50 -16 104 -85 104 -135 0 -23 -109 -20 -117 4 -12 33 -36 52
-68 52 -63 0 -99 -80 -75 -169 9 -33 18 -45 42 -56 40 -16 81 -3 96 30 10 22
18 25 68 25 l56 0 -7 -27 c-20 -81 -90 -133 -179 -133 -132 1 -217 100 -203
237 15 147 133 218 283 172z m487 -6 c52 -26 67 -79 67 -245 l0 -148 -60 0
-60 0 0 134 c0 154 -10 180 -69 178 -64 -2 -71 -18 -71 -174 l0 -138 -60 0
-60 0 0 205 0 205 55 0 55 0 0 -32 0 -33 18 23 c37 48 119 59 185 25z m634 0
c17 -8 39 -23 48 -33 19 -21 45 -91 38 -102 -2 -5 -26 -8 -53 -8 -44 0 -51 3
-64 29 -26 48 -79 56 -116 16 -33 -35 -39 -127 -12 -171 33 -51 104 -49 127 4
8 19 17 22 67 22 l56 0 -10 -37 c-45 -167 -300 -164 -364 4 -24 62 -15 161 20
213 53 80 166 107 263 63z m445 -5 c57 -28 91 -87 96 -163 5 -77 -10 -126 -54
-175 -87 -96 -267 -73 -323 42 -27 57 -28 156 -2 214 45 99 174 137 283 82z
m-812 -183 l0 -205 -60 0 -60 0 0 205 0 205 60 0 60 0 0 -205z m10951 -262
c153 -78 186 -334 60 -461 -47 -46 -86 -64 -156 -69 -115 -10 -204 36 -249
129 -59 121 -41 274 43 358 54 53 91 68 182 69 53 1 76 -4 120 -26z m359 -63
l0 -50 40 0 40 0 0 -45 0 -45 -40 0 -41 0 3 -112 3 -113 32 -3 c28 -3 32 -7
38 -44 5 -29 3 -43 -6 -49 -22 -14 -97 -10 -129 6 -54 28 -60 47 -60 187 l0
128 -30 0 c-29 0 -30 2 -30 45 0 43 1 45 30 45 29 0 30 1 30 50 l0 50 60 0 60
0 0 -50z m394 -49 l24 -10 -18 -48 c-17 -45 -20 -48 -52 -45 -23 2 -43 -3 -59
-16 -23 -19 -24 -26 -27 -156 l-4 -136 -59 0 -59 0 0 205 0 205 60 0 c59 0 60
-1 61 -27 0 -16 3 -22 6 -15 7 18 63 52 85 52 9 0 28 -4 42 -9z m322 -6 c88
-26 134 -97 134 -207 0 -122 -66 -198 -180 -206 -125 -9 -197 45 -219 166 -23
117 39 228 142 252 49 12 69 11 123 -5z m475 -10 c33 -18 69 -61 69 -85 0 -10
-10 -20 -22 -24 -36 -9 -88 -7 -88 4 0 5 -11 17 -25 26 -44 29 -115 -5 -84
-42 6 -7 36 -18 67 -24 74 -14 130 -39 148 -64 8 -11 14 -40 14 -63 0 -81 -74
-133 -188 -133 -90 0 -155 39 -176 106 -6 20 -2 22 49 29 52 6 57 5 77 -20 17
-22 27 -26 61 -23 44 3 70 29 51 48 -6 6 -45 20 -87 30 -87 22 -119 40 -135
76 -22 47 -8 110 33 144 46 38 175 46 236 15z m-12591 -480 c45 -23 64 -69 64
-150 0 -81 -19 -127 -64 -150 -37 -19 -53 -19 -91 1 -39 20 -60 70 -60 145 -1
80 16 126 55 150 38 23 58 24 96 4z m403 -13 c30 -26 47 -76 47 -137 0 -100
-41 -160 -110 -160 -75 0 -117 74 -107 189 6 63 27 102 68 124 29 15 76 8 102
-16z m264 6 c27 -22 53 -90 53 -139 0 -119 -62 -186 -147 -158 -45 15 -72 71
-73 152 0 104 51 174 118 163 19 -3 41 -11 49 -18z m252 7 c41 -20 61 -71 61
-150 0 -80 -20 -130 -63 -151 -87 -46 -169 49 -153 179 12 108 80 161 155 122z
m-2528 -31 c60 -61 59 -181 -2 -240 -28 -26 -38 -29 -115 -33 l-84 -3 0 157 0
157 85 -3 c79 -4 87 -6 116 -35z m769 -119 c0 -148 -1 -155 -20 -155 -12 0
-20 7 -20 18 0 10 -3 13 -8 6 -27 -41 -94 -40 -133 2 -20 22 -24 36 -24 91 0
60 2 67 33 94 36 33 76 37 110 13 22 -15 22 -15 22 35 0 44 3 51 20 51 19 0
20 -7 20 -155z m628 138 c-3 -15 -16 -19 -71 -21 l-67 -3 0 -33 c0 -32 1 -33
40 -32 107 2 149 -131 60 -192 -26 -18 -44 -22 -69 -18 -39 6 -81 41 -81 68 0
26 27 22 54 -9 18 -21 28 -25 49 -19 15 3 34 17 43 31 34 51 -22 117 -81 95
-14 -5 -35 -10 -47 -10 -18 0 -19 4 -13 53 14 116 5 107 102 107 75 0 84 -2
81 -17z m-1130 -86 c14 -14 26 -41 29 -65 l6 -42 -87 0 c-47 0 -86 -4 -86 -9
0 -4 9 -20 21 -35 23 -29 69 -35 89 -11 16 19 50 19 50 0 0 -19 -57 -55 -88
-55 -36 0 -80 27 -97 60 -32 61 -6 157 48 180 34 15 88 3 115 -23z m211 18
c16 -8 31 -21 35 -30 9 -23 -21 -30 -43 -10 -27 24 -75 17 -79 -12 -3 -19 5
-24 53 -38 40 -12 59 -24 67 -40 26 -57 -30 -113 -100 -101 -55 8 -94 55 -58
69 8 3 22 -3 32 -14 20 -23 67 -25 84 -4 20 24 5 42 -49 55 -53 12 -64 21 -75
58 -6 17 0 29 23 52 33 33 66 38 110 15z m501 0 c36 -19 50 -43 50 -89 l0 -36
-80 0 c-73 0 -80 -2 -80 -19 0 -43 75 -66 108 -33 16 16 52 19 52 3 0 -4 -10
-17 -23 -29 -55 -52 -143 -32 -171 39 -20 49 -20 59 0 109 26 64 84 86 144 55z
m805 -200 c0 -22 -31 -33 -47 -17 -17 17 -1 44 24 40 15 -2 23 -10 23 -23z
m11494 -301 c33 -28 51 -76 51 -139 0 -91 -48 -165 -106 -165 -41 0 -85 29
-100 65 -19 47 -18 158 2 201 31 65 101 82 153 38z m388 4 c27 -22 44 -77 44
-143 0 -66 -17 -121 -44 -143 -9 -8 -33 -16 -55 -19 -84 -11 -139 93 -114 216
16 76 57 116 114 108 21 -3 46 -11 55 -19z m262 -4 c33 -28 51 -76 51 -139 0
-91 -48 -165 -106 -165 -41 0 -85 29 -100 65 -19 47 -18 158 2 201 31 65 101
82 153 38z m278 -9 c56 -64 55 -203 -2 -265 -24 -27 -77 -35 -111 -18 -46 22
-67 70 -67 153 0 81 20 130 64 153 34 18 90 7 116 -23z m-2571 6 c61 -37 82
-136 45 -218 -26 -56 -61 -73 -156 -73 l-75 0 0 155 0 155 78 0 c58 0 85 -5
108 -19z m784 -136 c0 -148 -1 -155 -20 -155 -11 0 -20 5 -20 11 0 5 -10 3
-22 -5 -73 -51 -157 26 -145 131 9 82 86 128 145 87 22 -15 22 -15 22 35 0 44
3 51 20 51 19 0 20 -7 20 -155z m630 135 c0 -17 -8 -19 -67 -22 -68 -3 -68 -3
-71 -34 -3 -31 -3 -31 43 -30 41 1 50 -3 76 -32 76 -85 -14 -216 -119 -173
-24 10 -62 56 -62 75 0 16 42 3 64 -19 30 -30 46 -31 76 -7 16 13 23 29 22 51
-1 54 -17 64 -90 57 l-64 -7 7 63 c11 104 5 98 101 98 77 0 84 -2 84 -20z
m-11430 -5 c45 -23 64 -69 64 -150 0 -81 -19 -127 -64 -150 -37 -19 -53 -19
-91 1 -39 20 -60 70 -60 145 -1 80 16 126 55 150 38 23 58 24 96 4z m397 -7
c27 -22 53 -90 53 -139 0 -119 -62 -186 -147 -158 -45 15 -72 71 -73 152 0
104 51 174 118 163 19 -3 41 -11 49 -18z m253 7 c45 -23 64 -69 64 -150 0 -81
-19 -127 -64 -150 -37 -19 -53 -19 -91 1 -39 20 -60 70 -60 145 -1 80 16 126
55 150 38 23 58 24 96 4z m269 0 c41 -20 61 -71 61 -150 0 -80 -20 -130 -63
-151 -87 -46 -169 49 -153 179 12 108 80 161 155 122z m-2709 -46 c0 -50 0
-50 22 -35 32 23 73 20 104 -7 25 -21 27 -30 32 -120 l5 -97 -27 0 -26 0 0 88
c0 93 -8 112 -45 112 -47 0 -60 -23 -64 -114 -3 -77 -5 -86 -22 -86 -18 0 -19
9 -19 155 0 148 1 155 20 155 17 0 20 -7 20 -51z m1300 -104 c0 -148 -1 -155
-20 -155 -19 0 -20 7 -20 125 0 121 -1 125 -19 115 -31 -16 -51 -12 -51 10 0
11 6 20 14 20 8 0 24 9 37 20 13 10 32 19 42 20 15 0 17 -14 17 -155z m270
135 c0 -18 -7 -20 -65 -20 -62 0 -65 -1 -65 -24 0 -13 -3 -31 -6 -40 -5 -13
-2 -14 25 -5 47 17 102 -14 120 -67 13 -37 12 -44 -5 -80 -14 -30 -29 -42 -59
-53 -36 -12 -45 -12 -77 3 -29 14 -58 50 -58 71 0 14 41 2 50 -15 28 -52 110
-27 110 33 0 63 -30 80 -114 62 l-38 -8 7 74 c4 41 9 77 12 82 2 4 40 7 84 7
72 0 79 -2 79 -20z m-840 -25 c0 -20 5 -25 25 -25 18 0 25 -5 25 -20 0 -15 -7
-20 -26 -20 l-26 0 4 -76 c2 -51 8 -78 18 -84 8 -5 17 -7 21 -4 4 2 10 -4 13
-13 15 -37 -44 -38 -76 -1 -14 16 -18 38 -18 99 0 64 -3 79 -15 79 -8 0 -15 9
-15 20 0 11 7 20 15 20 9 0 15 9 15 25 0 18 5 25 20 25 15 0 20 -7 20 -25z
m11333 -16 c31 -14 57 -59 57 -98 l0 -31 -85 0 c-92 0 -100 -6 -60 -45 29 -30
58 -32 85 -5 14 14 25 17 41 12 l21 -8 -25 -30 c-22 -25 -32 -29 -77 -29 -46
0 -55 4 -82 34 -28 31 -30 38 -26 94 4 52 9 64 36 88 34 31 74 37 115 18z
m253 -12 c16 -14 24 -29 20 -35 -10 -16 -31 -15 -46 3 -16 19 -54 19 -70 -1
-18 -20 0 -37 58 -53 25 -7 49 -22 59 -38 15 -23 15 -28 2 -52 -20 -36 -57
-53 -102 -47 -60 7 -101 55 -60 70 10 4 23 -1 35 -14 22 -24 60 -26 78 -5 20
24 6 39 -46 53 -62 17 -74 27 -74 67 0 68 91 99 146 52z m492 7 c28 -19 52
-65 52 -99 0 -25 -1 -25 -85 -25 -94 0 -107 -11 -59 -49 33 -26 58 -27 84 -1
11 11 26 17 35 14 39 -15 -3 -63 -63 -71 -47 -6 -94 17 -111 54 -15 33 -13
113 3 142 27 48 100 66 144 35z m-12441 -28 c27 -23 28 -29 31 -121 l4 -97
-34 3 c-18 2 -45 -1 -61 -5 -38 -11 -83 9 -98 45 -10 26 -9 34 8 57 21 28 48
39 101 41 30 1 33 4 30 29 -2 21 -9 28 -31 30 -16 2 -40 -4 -53 -13 -30 -19
-57 -13 -47 11 7 20 58 43 95 44 15 0 40 -11 55 -24z m230 0 c22 -20 25 -27
16 -37 -10 -10 -16 -9 -31 4 -23 21 -65 22 -82 2 -17 -21 1 -41 44 -49 46 -9
86 -42 86 -72 0 -74 -133 -98 -174 -31 -17 28 13 42 37 16 21 -22 55 -25 82
-5 27 19 7 41 -50 55 -77 19 -99 92 -37 125 40 22 77 19 109 -8z m390 0 c27
-23 28 -29 31 -121 l4 -97 -34 3 c-18 2 -45 -1 -61 -5 -38 -11 -83 9 -98 45
-10 26 -9 34 8 57 21 28 48 39 101 41 30 1 33 4 30 29 -2 21 -9 28 -31 30 -16
2 -40 -4 -53 -13 -30 -19 -57 -13 -47 11 7 20 58 43 95 44 15 0 40 -11 55 -24z
m12607 -142 c21 -8 21 -50 0 -58 -32 -12 -57 27 -32 52 14 14 12 14 32 6z
m-11630 -39 c7 -19 -20 -46 -39 -39 -8 4 -15 17 -15 30 0 19 5 24 24 24 13 0
26 -7 30 -15z m10945 -300 c34 -17 55 -62 46 -98 -4 -14 -34 -57 -66 -96 l-60
-71 66 0 c58 0 65 -2 65 -20 0 -19 -7 -20 -100 -20 -124 0 -125 5 -34 103 76
83 89 106 80 141 -12 47 -86 44 -101 -4 -7 -24 -45 -27 -45 -4 0 26 19 53 48
68 35 19 66 20 101 1z m256 3 c41 -18 65 -76 65 -153 0 -129 -71 -196 -159
-150 -59 30 -81 167 -41 250 29 60 78 79 135 53z m284 -14 c33 -28 51 -76 51
-139 0 -91 -48 -165 -106 -165 -41 0 -85 29 -100 65 -19 47 -18 158 2 201 31
65 101 82 153 38z m388 4 c27 -22 44 -77 44 -143 0 -66 -17 -121 -44 -143 -9
-8 -33 -16 -55 -19 -84 -11 -139 93 -114 216 16 76 57 116 114 108 21 -3 46
-11 55 -19z m262 -4 c33 -28 51 -76 51 -139 0 -91 -48 -165 -106 -165 -41 0
-85 29 -100 65 -19 47 -18 158 2 201 31 65 101 82 153 38z m278 -9 c56 -64 55
-203 -2 -265 -24 -27 -77 -35 -111 -18 -46 22 -67 70 -67 153 0 81 20 130 64
153 34 18 90 7 116 -23z m-2807 -27 c0 -49 1 -50 18 -35 28 25 78 21 107 -8
23 -22 25 -32 25 -120 0 -88 -1 -95 -20 -95 -18 0 -20 7 -20 78 0 85 -16 122
-52 122 -45 0 -58 -27 -58 -117 0 -76 -2 -83 -20 -83 -19 0 -20 7 -20 155 0
148 1 155 20 155 17 0 20 -7 20 -52z m-11426 28 c34 -14 76 -59 76 -82 0 -24
-29 -15 -59 18 -40 45 -92 45 -132 0 -24 -27 -29 -41 -29 -87 0 -46 5 -60 29
-87 39 -44 94 -44 132 1 14 17 33 31 42 31 51 0 -25 -94 -86 -105 -70 -13
-142 43 -156 121 -15 84 15 154 80 186 41 22 59 22 103 4z m333 -11 c65 -43
86 -167 40 -236 -60 -91 -183 -85 -233 13 -20 38 -20 127 -1 165 40 76 126
102 194 58z m306 -5 c52 -41 44 -136 -14 -165 -15 -8 -48 -15 -74 -15 l-45 0
0 -55 c0 -52 -1 -55 -25 -55 l-25 0 0 155 0 155 79 0 c64 0 83 -4 104 -20z
m11517 -5 c0 -20 5 -25 25 -25 18 0 25 -5 25 -20 0 -15 -7 -20 -25 -20 -26 0
-26 0 -23 -77 3 -71 5 -78 24 -81 23 -3 39 -38 22 -48 -13 -9 -54 4 -72 22
-12 12 -16 36 -16 100 0 77 -2 84 -20 84 -12 0 -20 7 -20 16 0 9 9 18 20 21
13 3 20 14 20 29 0 17 6 24 20 24 15 0 20 -7 20 -25z m-365 -50 c23 -22 25
-32 25 -120 0 -88 -1 -95 -20 -95 -11 0 -20 5 -20 11 0 5 -10 3 -22 -5 -53
-37 -128 -2 -128 59 0 42 30 65 95 73 52 5 60 13 45 42 -13 24 -48 26 -76 5
-24 -18 -54 -19 -54 -2 0 15 26 41 50 50 37 14 82 6 105 -18z m229 4 c14 -11
26 -27 26 -35 0 -19 -34 -18 -50 1 -7 8 -23 15 -35 15 -12 0 -28 -7 -35 -15
-17 -21 1 -41 44 -49 89 -17 116 -95 45 -131 -15 -8 -40 -15 -54 -15 -54 0
-114 52 -83 72 18 11 22 10 41 -12 20 -24 59 -26 77 -5 20 24 5 41 -43 54 -56
13 -77 33 -77 71 0 36 41 70 85 70 18 0 44 -9 59 -21z m391 -4 c23 -22 25 -32
25 -120 0 -88 -1 -95 -20 -95 -11 0 -20 5 -20 11 0 5 -10 3 -22 -5 -53 -37
-128 -2 -128 59 0 42 30 65 95 73 52 5 60 13 45 42 -13 24 -48 26 -76 5 -24
-18 -54 -19 -54 -2 0 15 26 41 50 50 37 14 82 6 105 -18z m1039 -161 c21 -8
21 -50 0 -58 -32 -12 -57 27 -32 52 14 14 12 14 32 6z m162 -340 c32 -15 64
-57 64 -84 0 -21 -37 -9 -58 20 -19 25 -29 30 -66 30 -65 0 -91 -33 -91 -115
0 -82 26 -115 91 -115 37 0 47 5 66 30 21 29 58 41 58 20 0 -27 -32 -69 -64
-84 -104 -49 -200 22 -200 149 0 127 96 198 200 149z m310 0 c103 -49 106
-241 4 -296 -66 -35 -143 -14 -182 50 -30 50 -30 144 0 194 39 62 111 84 178
52z m326 -24 c27 -28 30 -36 25 -77 -7 -64 -32 -86 -107 -91 l-60 -4 0 -54 c0
-51 -1 -54 -25 -54 l-25 0 0 155 0 155 81 0 c76 0 82 -2 111 -30z"/>
<path d="M1262 10233 c-7 -3 -19 -18 -27 -34 l-16 -29 86 0 c47 0 85 4 85 9 0
4 -9 20 -21 35 -16 20 -29 26 -57 25 -20 0 -43 -3 -50 -6z"/>
<path d="M3240 10208 c-14 -23 -20 -51 -20 -91 0 -51 4 -62 29 -88 35 -35 61
-37 96 -6 29 25 42 82 31 142 -9 49 -38 75 -81 75 -29 0 -39 -6 -55 -32z"/>
<path d="M13346 9759 c-41 -32 -56 -71 -56 -144 0 -113 36 -165 117 -172 91
-8 143 53 143 166 0 113 -44 171 -130 171 -33 0 -55 -6 -74 -21z"/>
<path d="M14512 9653 c-37 -15 -56 -130 -29 -183 18 -35 58 -53 92 -40 61 23
75 159 20 213 -16 16 -56 21 -83 10z"/>
<path d="M2419 9211 c-22 -18 -24 -27 -24 -106 0 -79 2 -88 24 -106 13 -10 29
-19 36 -19 7 0 23 9 36 19 22 18 24 27 24 106 0 79 -2 88 -24 106 -13 10 -29
19 -36 19 -7 0 -23 -9 -36 -19z"/>
<path d="M2806 9211 c-42 -46 -44 -155 -5 -205 57 -73 125 21 104 144 -12 71
-62 102 -99 61z"/>
<path d="M3077 9218 c-58 -45 -45 -218 18 -234 34 -8 62 17 76 69 28 103 -33
210 -94 165z"/>
<path d="M3331 9204 c-17 -21 -21 -41 -21 -96 0 -75 9 -101 41 -118 49 -27 89
25 89 115 0 108 -60 162 -109 99z"/>
<path d="M730 9105 l0 -115 51 0 c43 0 55 5 80 29 25 25 29 37 29 84 0 45 -5
61 -26 86 -23 28 -32 31 -80 31 l-54 0 0 -115z"/>
<path d="M1524 9142 c-57 -38 -33 -162 31 -162 49 0 81 80 54 133 -15 27 -28
37 -54 37 -11 0 -25 -4 -31 -8z"/>
<path d="M1040 9128 c-11 -12 -20 -25 -20 -30 0 -4 29 -8 65 -8 57 0 64 2 58
18 -15 45 -70 56 -103 20z"/>
<path d="M1782 9134 c-41 -29 -28 -44 38 -44 65 0 76 12 42 43 -23 21 -51 22
-80 1z"/>
<path d="M14069 8634 c-21 -22 -24 -35 -24 -101 0 -70 2 -76 28 -99 34 -29 38
-29 67 -6 45 36 45 178 0 214 -30 24 -42 23 -71 -8z"/>
<path d="M14460 8642 c-26 -21 -38 -102 -26 -167 8 -41 44 -70 76 -60 60 19
67 204 10 235 -26 14 -35 13 -60 -8z"/>
<path d="M14719 8634 c-21 -22 -24 -35 -24 -101 0 -70 2 -76 28 -99 34 -29 38
-29 67 -6 45 36 45 178 0 214 -30 24 -42 23 -71 -8z"/>
<path d="M14997 8648 c-51 -40 -48 -201 4 -229 49 -26 89 26 89 116 0 95 -45
149 -93 113z"/>
<path d="M12380 8535 l0 -115 49 0 c60 0 98 28 110 80 19 88 -26 150 -110 150
l-49 0 0 -115z"/>
<path d="M13166 8561 c-20 -22 -24 -88 -7 -119 6 -12 23 -25 38 -28 52 -14 92
71 62 129 -22 42 -64 50 -93 18z"/>
<path d="M2429 8621 c-22 -18 -24 -27 -24 -106 0 -79 2 -88 24 -106 13 -10 29
-19 36 -19 7 0 23 9 36 19 22 18 24 27 24 106 0 79 -2 88 -24 106 -13 10 -29
19 -36 19 -7 0 -23 -9 -36 -19z"/>
<path d="M2817 8628 c-58 -45 -45 -218 18 -234 34 -8 62 17 76 69 28 103 -33
210 -94 165z"/>
<path d="M3079 8621 c-22 -18 -24 -27 -24 -106 0 -79 2 -88 24 -106 13 -10 29
-19 36 -19 7 0 23 9 36 19 22 18 24 27 24 106 0 79 -2 88 -24 106 -13 10 -29
19 -36 19 -7 0 -23 -9 -36 -19z"/>
<path d="M3341 8614 c-17 -21 -21 -41 -21 -96 0 -75 9 -101 41 -118 49 -27 89
25 89 115 0 108 -60 162 -109 99z"/>
<path d="M12698 8563 c-34 -40 -32 -43 37 -43 65 0 66 0 54 23 -22 41 -64 50
-91 20z"/>
<path d="M13430 8558 c-11 -12 -20 -25 -20 -30 0 -4 27 -8 60 -8 65 0 76 12
42 43 -25 23 -57 21 -82 -5z"/>
<path d="M1035 8463 c-11 -2 -30 -6 -42 -9 -16 -3 -23 -12 -23 -28 0 -37 55
-50 84 -20 16 16 23 65 9 63 -5 -1 -17 -3 -28 -6z"/>
<path d="M1655 8463 c-11 -2 -30 -6 -42 -9 -16 -3 -23 -12 -23 -28 0 -37 55
-50 84 -20 16 16 23 65 9 63 -5 -1 -17 -3 -28 -6z"/>
<path d="M13811 8053 c-12 -10 -26 -38 -32 -61 -23 -103 28 -196 86 -158 48
32 59 149 18 205 -25 33 -44 37 -72 14z"/>
<path d="M14069 8044 c-21 -22 -24 -35 -24 -101 0 -70 2 -76 28 -99 34 -29 38
-29 67 -6 45 36 45 178 0 214 -30 24 -42 23 -71 -8z"/>
<path d="M14460 8052 c-26 -21 -38 -102 -26 -167 8 -41 44 -70 76 -60 60 19
67 204 10 235 -26 14 -35 13 -60 -8z"/>
<path d="M14719 8044 c-21 -22 -24 -35 -24 -101 0 -70 2 -76 28 -99 34 -29 38
-29 67 -6 45 36 45 178 0 214 -30 24 -42 23 -71 -8z"/>
<path d="M14997 8058 c-51 -40 -48 -201 4 -229 49 -26 89 26 89 116 0 95 -45
149 -93 113z"/>
<path d="M1094 8040 c-41 -16 -64 -59 -64 -116 0 -45 5 -59 29 -86 22 -25 36
-32 66 -32 30 0 44 7 66 32 24 27 29 41 29 87 0 46 -4 60 -27 84 -31 33 -67
45 -99 31z"/>
<path d="M1370 7980 l0 -60 41 0 c60 0 79 14 79 58 0 50 -14 62 -72 62 l-48 0
0 -60z"/>
<path d="M12587 7890 c-49 -9 -65 -25 -51 -48 16 -25 59 -27 83 -3 20 20 29
62 14 60 -5 -1 -25 -5 -46 -9z"/>
<path d="M13207 7890 c-49 -9 -65 -25 -51 -48 16 -25 59 -27 83 -3 20 20 29
62 14 60 -5 -1 -25 -5 -46 -9z"/>
<path d="M14659 7444 c-20 -22 -24 -36 -24 -89 0 -82 26 -115 90 -115 64 0 90
33 90 115 0 82 -26 115 -90 115 -32 0 -47 -6 -66 -26z"/>
<path d="M14970 7410 l0 -60 44 0 c53 0 76 19 76 64 0 44 -16 56 -72 56 l-48
0 0 -60z"/>
<path d="M5122 6625 c-42 -24 -45 -24 -75 -8 -20 11 -55 17 -92 18 -80 0 -143
-36 -182 -103 -14 -26 -28 -49 -29 -51 -2 -2 -24 -7 -50 -12 -160 -30 -209
-242 -77 -335 37 -27 38 -29 40 -93 3 -113 57 -222 146 -292 62 -50 87 -56
143 -34 60 23 70 44 43 90 -26 44 -20 91 18 129 29 30 83 35 103 11 16 -19 60
-19 88 1 29 20 52 66 52 103 0 25 6 33 33 45 66 30 107 86 107 148 l0 33 34
-48 c19 -26 37 -60 41 -75 6 -24 8 -25 16 -9 6 10 28 25 50 33 64 26 119 106
119 174 0 107 -108 201 -215 187 -42 -6 -46 -5 -60 24 -9 16 -37 43 -63 60
-60 38 -128 40 -190 4z"/>
<path d="M10935 6377 c-92 -31 -168 -89 -211 -162 -18 -31 -33 -44 -56 -49
-41 -8 -95 -67 -109 -118 -25 -95 33 -201 122 -223 26 -6 26 -6 32 62 4 37 12
85 17 105 l11 38 37 -39 c61 -64 123 -73 238 -36 16 5 26 -2 48 -35 49 -74
150 -92 215 -37 38 32 64 26 86 -20 31 -64 -1 -153 -55 -153 -19 0 -35 -9 -49
-26 -19 -25 -29 -64 -15 -64 13 0 94 62 117 90 14 16 28 30 31 30 3 0 6 -20 6
-43 0 -89 75 -179 160 -195 54 -9 97 -2 166 28 62 27 83 23 147 -26 98 -76
207 -59 264 42 38 67 29 170 -20 222 -43 47 -95 65 -163 59 -79 -8 -99 7 -119
82 -24 94 -62 110 -174 77 -28 -8 -85 -18 -125 -22 l-72 -6 -11 71 c-22 144
-111 263 -240 323 -56 27 -82 33 -153 35 -51 2 -101 -2 -125 -10z"/>
<path d="M5293 5453 c25 -29 60 -138 61 -193 1 -25 6 -44 12 -43 5 1 10 -7 10
-17 0 -10 -4 -16 -9 -13 -6 3 -8 -8 -5 -26 2 -17 2 -31 -2 -31 -3 0 -7 -19 -7
-42 -1 -24 -9 -70 -17 -103 -8 -33 -17 -71 -20 -85 -2 -14 -10 -47 -16 -73
-11 -40 -10 -51 1 -62 36 -34 215 -145 227 -140 7 2 10 0 7 -5 -3 -6 -1 -10 4
-10 27 0 7 -18 -31 -30 -52 -15 -144 -74 -164 -105 -8 -13 -32 -34 -52 -48
-20 -14 -52 -39 -71 -56 -37 -33 -49 -34 -32 -3 6 11 7 22 4 26 -11 11 -51 6
-56 -6 -3 -8 -6 -6 -6 5 -1 9 6 17 15 17 8 0 13 4 9 9 -3 6 5 20 17 32 l23 21
-22 -11 c-23 -12 -34 1 -13 14 6 4 8 11 5 16 -4 5 -1 9 5 9 6 0 8 5 5 11 -9
13 -16 6 -19 -18 -2 -10 -13 -19 -26 -21 -16 -3 -20 0 -15 10 3 7 0 4 -9 -6
-8 -10 -13 -22 -11 -26 3 -5 -2 -11 -11 -14 -8 -3 -13 -2 -9 3 6 11 -4 41 -15
41 -5 0 -16 -7 -25 -16 -13 -13 -16 -14 -15 -3 5 34 0 41 -16 25 -8 -9 -21
-16 -27 -16 -8 0 -7 3 2 9 9 6 10 10 2 14 -7 3 -7 4 1 3 7 -2 21 4 31 13 10 8
18 11 17 6 -4 -19 0 -35 9 -35 5 0 8 11 5 24 -2 14 3 29 13 37 15 13 16 11 10
-18 -7 -36 10 -56 25 -29 5 9 14 13 20 10 7 -4 8 -2 4 5 -4 6 -11 9 -16 6 -16
-10 -16 30 0 43 8 8 10 11 3 8 -6 -4 -17 2 -23 11 -11 17 -11 17 -6 1 3 -12 0
-18 -9 -18 -8 0 -15 -6 -15 -12 0 -9 -4 -8 -11 2 -9 13 -10 13 -6 -2 7 -20
-19 -28 -51 -17 -15 6 -20 13 -15 25 4 11 2 15 -4 11 -5 -4 -18 0 -29 7 -17
13 -16 13 10 11 19 -2 25 0 19 6 -6 6 -20 11 -32 12 -24 1 -25 5 -12 41 9 22
8 24 -10 21 -15 -3 -19 0 -16 10 3 7 0 16 -8 18 -8 4 -12 -1 -10 -11 2 -9 4
-23 4 -31 1 -11 4 -11 17 0 14 12 16 11 13 -6 -5 -25 -21 -24 -35 4 -6 11 -20
29 -32 40 -25 21 -29 41 -8 41 8 0 18 4 21 10 4 6 -3 6 -21 0 -23 -9 -31 -7
-55 16 -22 21 -26 31 -18 41 9 10 7 13 -8 13 -25 0 -51 29 -48 53 2 12 -1 17
-10 13 -9 -3 -29 13 -52 41 -21 26 -50 60 -65 77 -16 17 -28 36 -28 43 0 7 -5
13 -11 13 -13 0 -40 26 -33 32 3 3 -6 3 -18 1 -24 -6 -199 -197 -225 -247 -28
-54 -13 -104 71 -233 l76 -118 -35 -31 -36 -32 31 -26 c18 -14 38 -26 46 -26
29 0 93 -40 127 -81 24 -27 40 -60 48 -94 11 -48 10 -57 -8 -92 -30 -58 -74
-83 -148 -83 -107 0 -209 70 -237 161 -6 20 -21 50 -33 65 -19 24 -25 26 -38
16 -15 -12 -25 -1 -292 296 -9 10 -20 5 -55 -26 -71 -63 -69 -70 110 -284 85
-101 169 -200 187 -220 l32 -37 0 -223 c0 -291 12 -413 72 -716 16 -84 34
-210 40 -280 11 -142 13 -112 -61 -907 -27 -291 -46 -533 -42 -536 8 -7 371
-44 376 -38 3 2 43 131 90 286 l86 282 -6 98 c-4 73 -2 110 9 146 13 40 13 47
1 47 -8 0 -14 6 -14 13 0 24 80 340 128 502 43 148 47 171 52 300 l5 140 19
-52 c11 -29 23 -53 26 -53 3 0 14 24 25 53 27 78 118 257 170 336 57 86 146
170 220 206 67 33 74 53 47 133 l-19 58 67 -19 67 -20 37 22 c20 13 44 37 52
54 16 30 16 31 -15 57 -42 33 -52 93 -25 139 22 36 43 45 90 37 68 -13 110 41
101 130 -5 46 -3 55 20 76 42 39 56 76 51 135 -3 29 -1 53 3 53 4 0 30 -21 58
-46 l51 -46 0 31 c0 18 -9 50 -20 71 l-20 40 22 0 c13 0 36 7 52 15 15 8 34
15 40 15 7 0 22 10 34 23 24 26 30 46 8 28 -11 -9 -15 -8 -20 4 -3 9 -10 13
-16 10 -5 -3 -10 -2 -10 4 0 5 5 13 10 16 6 3 10 1 10 -5 0 -6 5 -8 11 -5 5 4
20 -1 31 -12 12 -10 18 -12 14 -5 -4 7 -1 12 8 12 9 0 16 7 16 15 0 8 -4 15
-10 15 -5 0 -10 7 -10 15 0 20 19 19 27 -2 6 -15 7 -14 13 3 4 10 11 19 16 19
14 0 34 15 34 26 0 5 -4 9 -10 9 -5 0 -9 -5 -7 -11 2 -11 -11 -16 -60 -23 -26
-4 -27 -2 -12 25 5 11 14 17 20 14 5 -4 6 -11 3 -17 -4 -6 2 -6 15 1 11 7 21
17 21 23 0 7 -4 7 -14 -1 -11 -9 -16 -9 -21 0 -9 13 14 31 29 22 5 -4 6 -1 2
6 -5 7 -15 10 -25 6 -10 -4 -8 1 7 15 15 14 30 19 45 16 22 -6 22 -6 -1 6
l-23 11 23 21 c13 12 18 17 10 12 -9 -7 -16 -5 -21 3 -8 12 -12 4 -21 -37 -3
-15 -33 -41 -41 -36 -5 3 -6 -1 -3 -9 6 -17 -23 -50 -40 -44 -6 3 -10 10 -8
16 2 9 -3 9 -18 1 -15 -8 -20 -8 -18 1 2 8 -9 13 -27 13 -23 1 -30 6 -30 20 0
11 5 21 12 23 6 2 10 -4 9 -14 -2 -10 -1 -12 1 -5 3 7 9 10 14 6 5 -3 7 -9 5
-13 -3 -4 6 -7 20 -7 13 0 24 4 24 8 0 4 -6 8 -14 8 -8 0 -17 7 -20 16 -3 8
-11 12 -17 8 -8 -4 -9 1 -5 17 6 22 6 23 -7 7 -17 -21 -37 -23 -37 -4 0 18
-20 25 -53 19 -33 -6 -36 4 -5 16 16 6 33 2 55 -10 30 -17 37 -16 34 3 0 4 6
5 14 2 8 -4 15 -12 15 -19 0 -7 11 -20 25 -29 21 -14 24 -14 19 -1 -4 8 -12
15 -20 15 -16 0 -19 21 -4 36 6 6 5 19 -4 35 -9 17 -10 32 -4 43 11 20 -5 22
-21 2 -10 -11 -10 -20 0 -38 7 -13 16 -26 22 -29 5 -4 5 -9 -2 -13 -6 -4 -11
-2 -11 3 0 6 -7 11 -16 11 -12 0 -15 6 -11 21 4 16 3 18 -8 9 -10 -8 -15 -8
-21 1 -4 7 -3 9 3 6 6 -4 13 -1 16 7 4 9 0 12 -13 9 -10 -3 -21 1 -25 7 -5 8
-2 10 12 6 11 -3 27 1 39 10 19 15 19 16 -1 9 -23 -8 -24 -8 -48 -6 -10 0 -15
6 -11 12 4 7 9 8 17 0 6 -6 16 -7 27 -1 19 10 66 7 78 -5 4 -4 0 -4 -8 0 -13
8 -13 7 -1 -8 9 -12 10 -17 2 -17 -7 0 -9 -5 -6 -11 5 -6 12 -4 20 8 13 17 14
17 12 -4 -1 -13 -8 -23 -17 -24 -9 0 -7 -3 6 -9 25 -10 41 -30 23 -30 -8 0 -7
-5 2 -17 10 -11 10 -14 2 -9 -7 4 -13 3 -13 -3 0 -5 6 -11 13 -14 23 -8 45 5
57 34 13 30 19 34 36 22 5 -5 1 0 -9 10 -11 9 -24 17 -31 17 -7 0 -6 -4 2 -9
11 -7 10 -9 -3 -14 -9 -4 -15 -14 -13 -23 2 -9 -3 -19 -11 -22 -10 -3 -12 0
-8 11 3 9 2 19 -4 22 -5 4 -7 10 -4 15 3 5 -2 15 -10 23 -13 14 -13 17 1 32 9
9 14 19 10 22 -3 4 1 14 10 24 15 17 14 18 -12 15 -15 -2 -30 -9 -32 -17 -3
-12 -2 -12 6 0 6 8 12 9 16 3 3 -5 -1 -15 -8 -22 -12 -9 -18 -6 -31 14 -19 28
-40 34 -48 14 -4 -10 -6 -10 -6 0 -1 6 -6 12 -12 12 -5 0 -8 -4 -4 -9 3 -5 1
-12 -3 -15 -5 -3 -15 5 -22 18 -9 18 -9 29 0 47 10 21 10 22 -3 7 -16 -20 -32
-25 -21 -7 4 8 0 8 -15 0 -11 -7 -21 -14 -21 -17 0 -3 4 -3 9 0 5 3 16 -5 25
-18 13 -20 13 -25 1 -29 -15 -6 -49 38 -40 52 7 13 -5 42 -16 35 -5 -3 -9 4
-9 15 0 12 -5 21 -11 21 -6 0 -9 -8 -7 -18 3 -12 0 -19 -9 -19 -8 0 -12 6 -9
14 3 7 1 13 -4 13 -5 0 -11 -8 -13 -17 -4 -15 -5 -14 -6 3 -1 19 -44 50 -63
46 -5 -1 -8 5 -8 13 0 8 -7 15 -16 15 -9 0 -12 -5 -8 -12 5 -7 3 -8 -6 -3 -7
4 -16 2 -21 -6 -7 -11 -9 -10 -9 4 0 10 -4 16 -8 13 -5 -3 -9 1 -9 9 0 8 4 15
9 15 4 0 8 -5 8 -11 0 -5 4 -7 10 -4 11 7 -33 55 -50 55 -5 0 -10 6 -10 14 0
8 -4 18 -10 21 -16 10 -12 -22 5 -39 19 -18 20 -33 2 -17 -8 6 -17 8 -21 4 -4
-4 -4 1 -1 12 7 20 6 20 -9 1 -9 -11 -16 -15 -16 -10 0 6 5 15 11 21 7 7 5 15
-6 27 -9 9 -12 16 -6 16 6 0 11 5 11 10 0 7 -7 7 -20 0 -16 -9 -22 -7 -27 7
-3 10 -8 22 -11 27 -3 5 0 6 6 2 16 -10 15 2 -1 19 -10 9 -19 10 -31 3 -16 -9
-16 -7 -7 10 9 17 6 24 -19 45 -16 14 -26 28 -23 31 6 6 -12 10 -35 7 -7 -1
-12 2 -11 6 3 20 -3 30 -33 48 l-33 18 18 -20z m122 -233 c-3 -5 -12 -10 -18
-10 -7 0 -6 4 3 10 19 12 23 12 15 0z m75 -38 c0 -13 -12 -22 -22 -16 -10 6
-1 24 13 24 5 0 9 -4 9 -8z m-26 -30 c3 -5 -1 -9 -9 -9 -8 0 -12 4 -9 9 3 4 7
8 9 8 2 0 6 -4 9 -8z m46 -27 c0 -8 -2 -15 -4 -15 -2 0 -6 7 -10 15 -3 8 -1
15 4 15 6 0 10 -7 10 -15z m-2 -50 c-3 -3 -9 2 -12 12 -6 14 -5 15 5 6 7 -7
10 -15 7 -18z m78 -12 c-3 -4 -6 -1 -6 6 0 7 -4 9 -10 6 -6 -4 -7 1 -3 11 6
15 7 15 15 -1 6 -9 7 -19 4 -22z m115 -1 c-6 -2 -11 -10 -11 -19 0 -10 6 -12
20 -8 12 4 20 2 20 -5 0 -6 -4 -8 -10 -5 -5 3 -10 -3 -10 -14 0 -19 -14 -22
-37 -8 -6 4 -18 1 -26 -8 -13 -13 -16 -13 -21 2 -4 9 -4 18 -1 21 3 3 5 0 5
-6 0 -6 7 -9 16 -5 10 3 14 13 10 25 -2 11 -2 17 1 14 3 -3 12 1 19 9 17 17
18 29 2 19 -7 -4 -8 -3 -4 5 6 9 11 9 23 -1 10 -8 11 -14 4 -16z m-231 -6 c0
-2 -8 -10 -17 -17 -16 -13 -17 -12 -4 4 13 16 21 21 21 13z m57 -32 c-3 -3
-12 -4 -19 -1 -8 3 -5 6 6 6 11 1 17 -2 13 -5z m259 -6 c4 -7 3 -8 -4 -4 -7 4
-12 3 -12 -2 0 -17 13 -22 29 -9 14 10 14 10 4 -4 -7 -9 -9 -19 -5 -24 4 -4
-2 -5 -13 -3 -11 2 -21 9 -21 16 -1 6 -2 17 -3 23 0 5 -6 7 -13 3 -7 -4 -8 -3
-4 4 4 7 13 12 21 12 8 0 17 -5 21 -12z m-41 -38 c3 -5 1 -10 -4 -10 -6 0 -11
5 -11 10 0 6 2 10 4 10 3 0 8 -4 11 -10z m-350 -10 c3 -5 1 -10 -4 -10 -6 0
-11 5 -11 10 0 6 2 10 4 10 3 0 8 -4 11 -10z m167 -12 c-12 -12 -42 -20 -42
-12 0 4 38 22 50 23 2 1 -1 -4 -8 -11z m36 -13 c-3 -3 -9 2 -12 12 -6 14 -5
15 5 6 7 -7 10 -15 7 -18z m62 20 c0 -2 -9 -9 -20 -15 -12 -6 -20 -7 -20 -1 0
5 8 12 18 14 9 3 18 5 20 6 1 0 2 -1 2 -4z m310 1 c0 -3 -4 -8 -10 -11 -5 -3
-10 -1 -10 4 0 6 5 11 10 11 6 0 10 -2 10 -4z m-253 -12 c-3 -3 -12 -4 -19 -1
-8 3 -5 6 6 6 11 1 17 -2 13 -5z m45 -5 c15 -8 22 -8 28 1 5 8 9 7 13 -4 4 -9
3 -16 -1 -16 -4 0 -8 -9 -9 -20 -2 -22 25 -25 39 -5 14 19 8 27 -9 14 -17 -13
-17 -12 -4 4 13 16 13 20 0 28 -8 5 -9 9 -3 9 6 0 19 -9 29 -20 14 -16 16 -23
7 -32 -10 -10 -7 -17 10 -31 13 -10 18 -16 11 -13 -6 4 -14 2 -18 -4 -3 -5
-11 -10 -17 -10 -7 0 -6 6 2 15 11 13 8 15 -16 14 -16 0 -23 -3 -16 -6 6 -2
12 -9 12 -14 0 -6 -7 -6 -17 -1 -10 5 -30 8 -45 5 -14 -2 -29 1 -33 7 -4 6 1
7 12 3 16 -6 17 -5 3 13 -9 12 -9 15 -1 7 17 -14 41 -6 41 14 0 11 -3 13 -13
5 -9 -8 -17 -8 -27 0 -12 8 -12 9 3 4 21 -7 22 7 1 28 -18 19 -11 21 18 5z
m-278 -25 c3 -8 2 -12 -4 -9 -6 3 -10 10 -10 16 0 14 7 11 14 -7z m187 -14
c14 -38 12 -46 -9 -42 -16 2 -16 1 -1 -10 15 -12 15 -15 1 -28 -14 -13 -15
-12 -9 3 3 9 2 19 -3 22 -15 9 -12 25 4 25 11 0 13 7 6 30 -11 39 -2 39 11 0z
m34 -10 c-5 -8 -11 -8 -17 -2 -6 6 -7 16 -3 22 5 8 11 8 17 2 6 -6 7 -16 3
-22z m205 -50 c0 -5 -5 -10 -11 -10 -5 0 -7 5 -4 10 3 6 8 10 11 10 2 0 4 -4
4 -10z m-325 -20 c-3 -5 -1 -11 5 -15 5 -3 10 -12 10 -18 0 -7 -6 -3 -12 8
-15 25 -19 47 -7 39 5 -3 7 -9 4 -14z m215 8 c0 -4 -6 -8 -12 -9 -7 0 -23 -2
-35 -5 -22 -4 -30 6 -17 19 9 9 64 5 64 -5z m-9 -50 c-4 -18 -12 -34 -19 -34
-7 -1 -22 -2 -34 -3 l-23 -2 23 -18 c29 -25 28 -33 -3 -19 -14 6 -23 13 -20
16 2 3 -3 11 -13 19 -16 12 -15 13 3 6 18 -6 18 -5 6 10 -7 9 -28 21 -45 25
l-31 8 27 6 c15 3 26 2 23 -1 -2 -4 5 -12 16 -19 16 -10 19 -9 20 5 0 14 2 13
9 -4 11 -27 32 -31 23 -5 -5 14 -3 13 11 -3 16 -20 16 -19 12 7 -3 15 1 29 7
32 7 2 13 5 13 5 1 1 -2 -14 -5 -31z m95 4 c10 -24 11 -62 2 -62 -8 0 -12 23
-8 50 1 8 -2 11 -7 7 -11 -12 -12 -67 0 -67 5 0 -1 -9 -14 -20 -19 -15 -20
-19 -8 -20 9 0 22 7 29 15 13 15 30 12 30 -6 0 -6 -4 -8 -9 -4 -5 3 -15 0 -23
-7 -14 -14 -48 -20 -46 -9 2 21 -4 30 -17 24 -9 -3 -15 -1 -13 5 2 6 -6 18
-17 26 -11 8 -15 16 -8 16 6 0 15 -5 18 -10 4 -6 11 -7 17 -4 7 4 8 2 4 -4 -4
-7 -1 -12 9 -12 11 0 15 5 12 14 -4 11 -1 13 11 9 13 -5 14 -3 6 6 -13 14 -7
51 8 51 6 0 5 7 -2 15 -11 13 -10 14 3 9 8 -3 19 -13 23 -22z m-51 -23 c0 -7
-9 -15 -20 -16 -11 -2 -14 0 -7 3 6 3 12 10 12 15 0 6 -5 7 -12 3 -7 -4 -8 -3
-4 5 10 15 31 9 31 -10z m-204 -36 c13 -16 12 -17 -3 -4 -10 7 -18 15 -18 17
0 8 8 3 21 -13z m312 -30 c-4 -11 0 -11 20 -4 23 9 29 6 47 -19 12 -17 19 -34
16 -39 -3 -5 1 -12 10 -15 9 -4 14 -9 11 -13 -4 -3 -12 -1 -19 4 -7 6 -22 13
-33 16 -18 4 -18 5 3 6 12 0 22 6 22 11 0 12 2 12 -37 1 -25 -7 -35 -6 -44 6
-11 13 -8 14 24 8 29 -6 37 -4 37 8 0 9 -8 13 -26 11 -15 -1 -33 0 -40 3 -18
7 -18 30 0 30 8 0 12 -6 9 -14z m-289 -15 c-3 -4 -9 -8 -15 -8 -5 0 -9 4 -9 8
0 5 7 9 15 9 8 0 12 -4 9 -9z m115 -12 c8 -10 9 -16 1 -21 -6 -4 -9 -1 -8 7 2
7 -3 12 -10 10 -8 -1 -11 2 -7 8 8 13 10 13 24 -4z m51 -2 c0 -8 -19 -13 -24
-6 -3 5 1 9 9 9 8 0 15 -2 15 -3z m105 -3 c-3 -5 -1 -12 5 -16 15 -9 12 -25
-5 -25 -8 0 -15 4 -15 9 0 6 -9 8 -20 6 -12 -2 -18 0 -15 6 4 5 10 7 15 4 4
-3 10 2 14 10 3 8 10 15 16 15 6 0 9 -4 5 -9z m-135 -64 c0 -5 -4 -5 -10 -2
-5 3 -10 14 -10 23 0 15 2 15 10 2 5 -8 10 -19 10 -23z m23 18 c-3 -9 -8 -14
-10 -11 -3 3 -2 9 2 15 9 16 15 13 8 -4z m47 -14 c0 -10 -26 -9 -36 2 -4 4 2
7 14 7 12 0 22 -4 22 -9z m48 -17 c-2 -19 -7 -24 -20 -20 -20 5 -38 -21 -30
-44 5 -16 4 -15 -18 14 -13 17 -13 18 -1 11 11 -6 13 -4 8 9 -4 9 -3 14 2 11
5 -3 12 -1 16 5 4 6 11 8 16 5 8 -6 13 8 10 28 0 4 3 7 9 7 5 0 9 -12 8 -26z
m61 -36 c13 -20 12 -22 -1 -11 -8 7 -19 9 -23 5 -5 -4 -5 -2 -2 5 4 6 1 14 -5
16 -9 4 -8 6 2 6 8 1 21 -9 29 -21z m-43 -18 c0 -20 -7 -25 -19 -13 -4 3 -2
12 4 20 15 17 15 17 15 -7z m-836 -34 c0 -3 -4 -8 -10 -11 -5 -3 -10 -1 -10 4
0 6 5 11 10 11 6 0 10 -2 10 -4z m-47 -79 c4 3 7 1 7 -5 0 -7 -7 -12 -16 -12
-9 0 -12 -5 -8 -12 4 -7 3 -8 -4 -4 -6 4 -8 14 -5 23 4 10 2 14 -4 10 -5 -3
-10 0 -10 8 0 13 3 13 17 0 9 -8 20 -12 23 -8z m107 19 c0 -11 -19 -15 -25 -6
-3 5 1 10 9 10 9 0 16 -2 16 -4z m-176 -41 c-9 -14 -17 -24 -18 -23 -1 2 -8
12 -16 23 -14 18 -13 19 1 7 13 -10 19 -9 29 3 20 24 22 18 4 -10z m146 12 c0
-8 -3 -16 -6 -20 -8 -8 -34 3 -34 14 0 4 7 5 17 2 11 -4 14 -3 9 5 -4 7 -2 12
3 12 6 0 11 -6 11 -13z m-124 -49 c0 -12 -8 -23 -16 -25 -12 -4 -12 -2 -2 5 7
5 12 13 11 18 -2 12 0 24 5 24 2 0 3 -10 2 -22z m174 12 c0 -5 -2 -10 -4 -10
-3 0 -8 5 -11 10 -3 6 -1 10 4 10 6 0 11 -4 11 -10z m-99 -33 c-10 -9 -11 -8
-5 6 3 10 9 15 12 12 3 -3 0 -11 -7 -18z m-21 3 c0 -5 -4 -10 -10 -10 -5 0
-10 5 -10 10 0 6 5 10 10 10 6 0 10 -4 10 -10z m76 -16 c2 -12 -1 -13 -12 -3
-7 6 -11 16 -8 21 7 11 17 3 20 -18z"/>
<path d="M5670 5026 c0 -8 5 -18 10 -21 6 -3 10 1 10 9 0 8 -4 18 -10 21 -5 3
-10 -1 -10 -9z"/>
<path d="M6004 5319 c-3 -6 -1 -16 5 -22 9 -9 10 -7 5 7 -6 15 -4 17 6 11 9
-5 11 -4 6 3 -9 15 -13 15 -22 1z"/>
<path d="M6120 5309 c0 -5 5 -7 10 -4 6 3 10 8 10 11 0 2 -4 4 -10 4 -5 0 -10
-5 -10 -11z"/>
<path d="M5485 5270 c-3 -5 -1 -10 4 -10 6 0 11 5 11 10 0 6 -2 10 -4 10 -3 0
-8 -4 -11 -10z"/>
<path d="M5965 5270 c-3 -6 1 -7 9 -4 18 7 21 14 7 14 -6 0 -13 -4 -16 -10z"/>
<path d="M5955 5230 c-4 -6 -11 -8 -16 -5 -5 3 -6 -1 -3 -10 6 -14 8 -14 25 1
11 9 19 19 19 21 0 7 -19 2 -25 -7z"/>
<path d="M6027 5179 c7 -7 15 -10 18 -7 3 3 -2 9 -12 12 -14 6 -15 5 -6 -5z"/>
<path d="M5897 5167 c-4 -10 -17 -22 -29 -27 -13 -5 -16 -9 -8 -9 22 -1 53 26
48 40 -3 9 -6 7 -11 -4z"/>
<path d="M5950 5151 c0 -14 -2 -14 -10 -1 -6 9 -10 10 -10 3 0 -18 37 -36 46
-21 4 7 3 8 -4 4 -7 -4 -12 -2 -12 3 0 6 5 11 10 11 6 0 10 4 10 8 0 5 -7 9
-15 9 -8 0 -15 -7 -15 -16z"/>
<path d="M6078 5159 c-19 -11 -24 -34 -9 -43 5 -4 7 3 4 14 -5 18 5 25 30 21
5 -1 6 3 2 9 -7 12 -6 12 -27 -1z"/>
<path d="M10772 5029 c-85 -78 -147 -127 -154 -123 -6 4 -9 3 -6 -2 3 -5 -4
-18 -15 -29 -11 -11 -17 -14 -13 -8 5 9 2 11 -8 7 -8 -3 -13 -11 -10 -18 4
-11 -23 -40 -55 -61 -10 -6 -12 -4 -6 4 6 10 3 11 -14 2 -11 -7 -21 -18 -21
-26 0 -10 -6 -12 -17 -8 -15 6 -16 4 -5 -9 22 -28 -13 -29 -52 -3 -20 14 -37
22 -37 20 -1 -3 -2 -9 -3 -14 -3 -24 -16 -21 -14 2 1 15 7 27 14 27 6 0 11 7
11 15 0 11 -4 12 -13 4 -8 -6 -14 -6 -18 0 -3 5 0 11 6 14 7 3 3 4 -9 4 -12
-1 -19 -5 -17 -9 3 -4 1 -8 -5 -8 -18 0 -21 17 -6 30 8 7 15 17 15 22 0 5 -11
-2 -23 -16 -19 -20 -26 -23 -37 -13 -12 10 -12 9 -2 -4 6 -9 9 -19 6 -22 -4
-4 3 -5 14 -2 12 2 24 -1 27 -6 4 -5 10 -7 15 -4 4 3 10 -2 14 -10 6 -16 2
-20 -36 -29 -16 -3 -28 -11 -28 -16 0 -6 -5 -10 -12 -10 -9 0 -9 3 0 12 18 18
14 36 -9 43 -16 5 -18 10 -8 21 15 18 8 18 -27 -1 -20 -10 -23 -15 -11 -15 10
0 20 -7 23 -15 4 -8 10 -12 15 -9 5 3 9 1 9 -4 0 -6 -7 -12 -15 -16 -24 -9
-19 -39 5 -33 17 4 20 2 14 -15 -5 -15 -3 -19 7 -13 8 5 10 4 6 0 -13 -15 -36
-14 -30 1 3 9 0 14 -8 12 -10 -2 -15 9 -17 34 -3 31 -7 36 -25 36 -12 -1 -28
-6 -35 -11 -8 -7 -18 -4 -30 7 -10 9 -24 16 -30 16 -7 0 -12 7 -12 15 0 17 5
18 28 6 36 -18 69 -21 69 -6 0 8 -4 12 -9 9 -4 -3 -8 2 -8 11 0 9 -4 13 -10
10 -5 -3 -10 -1 -10 6 0 7 -3 9 -6 6 -4 -4 -1 -13 6 -22 10 -12 10 -15 -3 -15
-9 0 -18 4 -21 9 -3 5 -15 11 -27 14 -20 5 -21 3 -16 -31 5 -32 4 -35 -7 -20
-7 10 -16 15 -19 11 -4 -3 -2 -12 4 -19 7 -8 7 -14 -1 -19 -15 -9 -32 5 -27
24 3 12 -3 17 -17 19 -11 0 -27 9 -34 19 -7 10 -23 18 -36 18 -22 1 -48 -18
-45 -32 1 -4 -13 -16 -30 -25 l-31 -18 5 28 c4 19 3 21 -3 9 -4 -10 -11 -18
-15 -18 -19 2 -18 0 3 -19 12 -11 27 -17 33 -13 6 3 7 1 3 -5 -9 -15 142 -115
161 -107 8 2 12 1 8 -4 -6 -11 80 -53 140 -70 27 -7 41 -7 46 0 4 7 8 5 12 -5
8 -20 119 -22 193 -3 l50 13 159 -178 c88 -97 162 -177 165 -177 3 -1 13 13
22 29 37 65 172 99 255 65 29 -12 43 -13 73 -4 36 11 38 14 33 45 l-5 32 98
31 c55 16 141 42 192 57 l92 28 0 38 c0 24 -5 38 -12 38 -10 0 -10 2 0 8 9 6
11 28 6 83 -4 41 -7 95 -8 122 0 26 -4 47 -9 47 -4 0 -6 -12 -5 -26 2 -16 -3
-29 -11 -32 -9 -3 -12 0 -9 10 4 9 -1 14 -15 16 -12 0 -26 7 -32 15 -5 8 -16
12 -24 9 -8 -2 -11 0 -8 5 3 5 -5 9 -19 9 -13 0 -24 -4 -24 -9 0 -4 -4 -6 -8
-3 -4 2 -14 1 -22 -4 -9 -6 -18 -3 -27 8 -11 14 -13 14 -12 2 4 -40 -5 -37
-53 16 -29 31 -52 61 -50 66 1 5 -1 7 -6 4 -5 -3 -19 7 -32 22 -107 124 -215
232 -234 232 -13 0 -75 -50 -164 -131z m-775 -249 c10 0 13 -6 9 -16 -3 -8 1
-22 9 -31 8 -8 12 -20 8 -26 -5 -8 -9 -6 -11 6 -2 9 -8 15 -13 12 -5 -4 -9 3
-9 14 0 13 -5 19 -14 15 -18 -7 -28 -44 -13 -44 7 0 4 -5 -6 -11 -9 -6 -15
-14 -12 -20 4 -5 1 -9 -4 -9 -14 0 -14 17 -1 25 15 9 0 35 -20 35 -14 0 -18
-6 -15 -21 3 -12 1 -18 -3 -15 -7 8 -8 13 -11 44 -1 13 -3 14 -10 4 -7 -11 -9
-10 -14 3 -4 9 -3 14 1 11 9 -6 42 29 42 44 0 6 7 10 15 10 10 0 15 -9 14 -27
l-1 -28 -7 25 c-7 24 -7 24 -15 5 -5 -11 -10 -25 -11 -31 -3 -12 30 -12 58 1
19 8 24 30 5 22 -8 -3 -14 5 -14 20 -2 24 -2 24 13 4 8 -12 21 -21 30 -21z
m1373 5 c-6 -7 -20 -15 -30 -18 -16 -4 -20 0 -19 16 0 12 3 16 6 10 3 -10 8
-9 20 2 18 18 39 9 23 -10z m51 12 c-1 -4 -1 -15 -2 -24 -1 -12 -4 -10 -9 7
-8 23 -8 23 -9 -8 -1 -27 2 -33 17 -30 9 2 16 9 15 16 -2 6 3 9 10 6 7 -2 13
-13 14 -23 1 -17 -4 -18 -39 -15 -25 3 -38 1 -34 -5 4 -5 2 -12 -3 -15 -10 -7
-9 13 1 30 4 6 1 11 -7 11 -8 0 -15 -4 -15 -9 0 -5 -4 -6 -10 -3 -12 7 -14 26
-2 24 17 -3 46 3 35 7 -8 4 -7 11 5 25 16 18 34 22 33 6z m72 -44 c2 -13 1
-23 -4 -23 -4 0 -10 -6 -12 -12 -2 -7 -3 -1 -1 15 2 19 -2 31 -16 39 -28 18
-25 28 4 15 14 -7 27 -22 29 -34z m-1350 -17 c12 4 24 11 26 16 2 5 9 -1 15
-14 14 -27 0 -91 -15 -67 -5 8 -2 20 8 31 14 16 14 18 -2 24 -11 5 -22 1 -30
-9 -12 -17 -28 -11 -38 13 -4 11 -6 10 -7 -5 l-1 -20 -8 20 c-6 14 -4 22 8 26
9 4 17 1 19 -8 3 -9 11 -12 25 -7z m243 -6 c-10 -3 -17 -10 -16 -15 1 -5 -4
-11 -12 -13 -11 -3 -11 -2 0 6 8 5 13 12 13 16 -3 20 1 25 16 19 15 -6 15 -7
-1 -13z m-68 -7 c2 -7 -1 -13 -8 -13 -6 0 -8 5 -4 12 5 8 2 9 -9 5 -10 -3 -17
-2 -17 4 0 14 32 7 38 -8z m26 -8 c-4 -8 -8 -15 -10 -15 -2 0 -4 7 -4 15 0 8
4 15 10 15 5 0 7 -7 4 -15z m-254 -26 c0 -5 -8 -9 -17 -8 -11 0 -13 3 -5 6 6
2 9 10 6 15 -4 7 -2 8 4 4 7 -4 12 -11 12 -17z m1360 17 c0 -3 -4 -8 -10 -11
-5 -3 -10 -1 -10 4 0 6 5 11 10 11 6 0 10 -2 10 -4z m-1060 -16 c0 -5 -5 -10
-11 -10 -5 0 -7 5 -4 10 3 6 8 10 11 10 2 0 4 -4 4 -10z m-403 -18 c0 -10 -7
-19 -14 -19 -16 0 -17 9 -1 25 16 16 17 15 15 -6z m37 3 c-4 -8 -8 -15 -10
-15 -2 0 -4 7 -4 15 0 8 4 15 10 15 5 0 7 -7 4 -15z m276 0 c0 -8 -8 -15 -17
-14 -11 0 -13 3 -5 6 6 2 10 9 6 14 -3 5 0 9 5 9 6 0 11 -7 11 -15z m1125 5
c3 -5 1 -10 -4 -10 -6 0 -11 5 -11 10 0 6 2 10 4 10 3 0 8 -4 11 -10z m35 -15
c-7 -9 -15 -13 -18 -10 -3 2 1 11 8 20 7 9 15 13 18 10 3 -2 -1 -11 -8 -20z
m-1243 -17 c-3 -8 -6 -5 -6 6 -1 11 2 17 5 13 3 -3 4 -12 1 -19z"/>
<path d="M5836 5103 c-3 -7 0 -15 6 -19 7 -4 8 -3 4 4 -4 7 -3 12 3 12 5 0 13
-4 16 -10 3 -5 12 -10 18 -10 7 0 6 4 -3 10 -8 5 -11 12 -8 16 11 10 40 -4 33
-16 -4 -6 -1 -9 7 -8 7 2 12 -3 10 -10 -1 -8 2 -11 8 -7 5 3 10 13 10 21 0 8
-4 13 -9 10 -5 -3 -14 1 -21 9 -14 17 -68 15 -74 -2z"/>
<path d="M6043 5092 c1 -12 6 -18 15 -15 7 3 10 9 5 12 -4 3 -11 10 -15 15 -4
4 -6 -1 -5 -12z"/>
<path d="M5810 5070 c0 -5 5 -10 10 -10 6 0 10 -7 10 -15 0 -17 16 -20 25 -5
4 6 9 9 13 6 4 -2 16 0 27 4 16 7 14 8 -10 8 -17 -1 -41 4 -53 11 -14 8 -22 8
-22 1z"/>
<path d="M5953 5064 c-18 -18 -16 -29 2 -14 8 7 24 9 37 5 26 -8 23 -3 -7 13
-15 7 -23 6 -32 -4z"/>
<path d="M7708 5043 c-8 -10 -59 -94 -113 -188 -125 -219 -142 -243 -187 -272
-37 -23 -37 -23 -48 -2 -6 11 -15 46 -20 77 -13 78 -36 106 -88 110 -105 8
-221 -94 -282 -248 -39 -99 -24 -221 31 -251 26 -13 88 -7 152 16 26 10 51 14
55 10 4 -3 7 -26 6 -49 -1 -45 -47 -139 -175 -360 -33 -56 -59 -113 -59 -128
0 -32 28 -55 145 -118 188 -102 295 -171 320 -208 l25 -37 -27 -12 c-16 -6
-52 -14 -82 -18 -92 -12 -125 -77 -87 -170 50 -119 245 -234 377 -222 111 10
151 69 110 162 -12 26 -21 60 -21 76 0 27 3 29 38 29 42 0 65 -11 302 -146
161 -91 206 -107 228 -81 5 6 60 100 122 207 112 196 146 242 187 254 27 9 41
-14 53 -91 16 -97 73 -130 158 -93 101 45 177 134 212 248 37 118 19 206 -48
245 l-33 19 -65 -32 c-56 -29 -67 -32 -90 -21 -43 19 -28 68 79 258 150 266
156 283 120 315 -23 20 -209 129 -350 207 -148 81 -206 81 -248 1 -22 -42 -19
-73 13 -130 l27 -51 -25 -21 c-37 -31 -128 -21 -210 23 -78 42 -150 125 -150
174 0 31 3 34 48 44 71 18 144 61 154 93 15 44 -13 92 -77 133 -51 33 -454
265 -459 265 -2 0 -10 -8 -18 -17z"/>
<path d="M5917 5034 c-3 -3 -3 -12 0 -20 3 -8 0 -14 -6 -14 -6 0 -11 -4 -11
-8 0 -4 9 -8 20 -8 21 0 27 20 10 31 -6 4 -8 11 -5 16 7 10 2 12 -8 3z"/>
<path d="M5968 5033 c7 -3 16 -2 19 1 4 3 -2 6 -13 5 -11 0 -14 -3 -6 -6z"/>
<path d="M6006 5023 c-6 -14 -5 -15 5 -6 7 7 10 15 7 18 -3 3 -9 -2 -12 -12z"/>
<path d="M6080 5023 c0 -6 5 -15 10 -18 6 -4 8 -11 5 -16 -4 -5 -1 -9 4 -9 6
0 11 5 11 11 0 5 4 8 9 4 5 -3 13 0 17 6 4 7 3 9 -4 5 -6 -3 -15 2 -21 11 -8
14 -10 15 -11 3 0 -13 -1 -13 -10 0 -6 9 -10 10 -10 3z"/>
<path d="M5975 5010 c-4 -6 -11 -7 -17 -4 -7 4 -8 2 -4 -5 6 -9 11 -9 22 0 14
11 18 19 10 19 -3 0 -8 -5 -11 -10z"/>
<path d="M5840 4991 c0 -6 4 -13 10 -16 6 -3 7 1 4 9 -7 18 -14 21 -14 7z"/>
<path d="M6201 4924 c0 -11 3 -14 6 -6 3 7 2 16 -1 19 -3 4 -6 -2 -5 -13z"/>
<path d="M6226 4914 c-9 -24 -2 -26 12 -4 7 11 8 20 3 20 -5 0 -12 -7 -15 -16z"/>
<path d="M11350 4926 c0 -2 7 -7 16 -10 8 -3 12 -2 9 4 -6 10 -25 14 -25 6z"/>
<path d="M9775 4911 c-3 -5 -2 -12 3 -15 5 -3 9 1 9 9 0 17 -3 19 -12 6z"/>
<path d="M10520 4904 c0 -8 5 -12 10 -9 6 4 8 11 5 16 -9 14 -15 11 -15 -7z"/>
<path d="M10566 4908 c3 -5 10 -6 15 -3 13 9 11 12 -6 12 -8 0 -12 -4 -9 -9z"/>
<path d="M6080 4906 c0 -2 7 -7 16 -10 8 -3 12 -2 9 4 -6 10 -25 14 -25 6z"/>
<path d="M10440 4875 c-7 -8 -11 -15 -9 -16 25 -5 51 -4 55 3 3 5 2 8 -3 7
-20 -3 -34 2 -28 11 9 15 -1 12 -15 -5z"/>
<path d="M11415 4880 c-16 -7 -17 -9 -3 -9 9 -1 20 4 23 9 7 11 7 11 -20 0z"/>
<path d="M6150 4871 c0 -10 19 -25 25 -20 1 2 -3 10 -11 17 -8 7 -14 8 -14 3z"/>
<path d="M9725 4869 c-4 -6 -5 -13 -2 -16 7 -7 27 6 27 18 0 12 -17 12 -25 -2z"/>
<path d="M9786 4872 c-3 -5 1 -9 9 -9 8 0 12 4 9 9 -3 4 -7 8 -9 8 -2 0 -6 -4
-9 -8z"/>
<path d="M9928 4873 c7 -3 16 -2 19 1 4 3 -2 6 -13 5 -11 0 -14 -3 -6 -6z"/>
<path d="M10362 4855 c6 -14 15 -25 19 -25 4 0 2 11 -4 25 -7 14 -15 25 -19
25 -4 0 -2 -11 4 -25z"/>
<path d="M11340 4870 c0 -5 5 -10 11 -10 5 0 7 5 4 10 -3 6 -8 10 -11 10 -2 0
-4 -4 -4 -10z"/>
<path d="M11268 4863 c7 -3 16 -2 19 1 4 3 -2 6 -13 5 -11 0 -14 -3 -6 -6z"/>
<path d="M4822 4840 c0 -14 2 -19 5 -12 2 6 2 18 0 25 -3 6 -5 1 -5 -13z"/>
<path d="M10401 4844 c0 -11 3 -14 6 -6 3 7 2 16 -1 19 -3 4 -6 -2 -5 -13z"/>
<path d="M11456 4845 c-11 -8 -15 -15 -9 -15 6 0 16 7 23 15 16 19 11 19 -14
0z"/>
<path d="M10177 4830 c19 -20 25 -22 35 -11 11 11 10 13 0 6 -8 -4 -23 1 -35
11 -22 18 -22 18 0 -6z"/>
<path d="M10421 4843 c-1 -17 16 -25 25 -12 4 7 3 9 -4 5 -5 -3 -13 0 -15 6
-4 9 -6 10 -6 1z"/>
<path d="M11335 4841 c-3 -5 -2 -12 3 -15 5 -3 9 1 9 9 0 17 -3 19 -12 6z"/>
<path d="M9825 4831 c-3 -5 -1 -12 5 -16 5 -3 10 1 10 9 0 18 -6 21 -15 7z"/>
<path d="M9985 4820 c-3 -5 -1 -10 4 -10 6 0 11 5 11 10 0 6 -2 10 -4 10 -3 0
-8 -4 -11 -10z"/>
<path d="M6170 4816 c0 -2 7 -7 16 -10 8 -3 12 -2 9 4 -6 10 -25 14 -25 6z"/>
<path d="M9771 4811 c-7 -5 -9 -11 -5 -14 5 -3 15 1 22 9 14 16 5 18 -17 5z"/>
<path d="M10045 4810 c-3 -5 -1 -10 4 -10 6 0 11 5 11 10 0 6 -2 10 -4 10 -3
0 -8 -4 -11 -10z"/>
<path d="M10393 4805 c12 -13 54 -12 68 2 7 7 -4 10 -34 9 -29 -1 -40 -4 -34
-11z"/>
<path d="M9805 4800 c-3 -5 -1 -10 4 -10 6 0 11 5 11 10 0 6 -2 10 -4 10 -3 0
-8 -4 -11 -10z"/>
<path d="M9850 4793 c0 -10 4 -14 8 -8 4 6 11 13 16 18 5 4 2 7 -7 7 -10 0
-17 -8 -17 -17z"/>
<path d="M4808 4793 c6 -2 9 -10 6 -15 -4 -7 -2 -8 4 -4 7 4 12 2 12 -5 0 -7
3 -9 6 -6 9 8 -15 37 -30 36 -7 0 -6 -2 2 -6z"/>
<path d="M4891 4784 c0 -11 3 -14 6 -6 3 7 2 16 -1 19 -3 4 -6 -2 -5 -13z"/>
<path d="M4910 4771 c0 -6 4 -13 10 -16 6 -3 7 1 4 9 -7 18 -14 21 -14 7z"/>
<path d="M6155 4770 c-4 -6 -17 -15 -29 -20 l-21 -9 21 0 c22 -1 52 25 41 35
-3 3 -8 0 -12 -6z"/>
<path d="M6000 4746 c0 -2 7 -7 16 -10 8 -3 12 -2 9 4 -6 10 -25 14 -25 6z"/>
<path d="M4903 4733 c-7 -2 -13 -9 -13 -15 0 -7 5 -7 13 1 8 6 18 7 22 3 5 -4
5 -1 1 6 -4 6 -8 12 -9 11 -1 0 -8 -3 -14 -6z"/>
<path d="M4948 4653 c7 -3 16 -2 19 1 4 3 -2 6 -13 5 -11 0 -14 -3 -6 -6z"/>
<path d="M5025 4641 c-3 -5 -1 -12 4 -15 5 -3 7 -15 4 -25 -3 -10 -1 -21 4
-24 4 -3 9 8 10 24 1 16 -2 29 -8 29 -6 0 -7 5 -4 10 3 6 4 10 1 10 -3 0 -7
-4 -11 -9z"/>
<path d="M4953 4632 c-9 -6 -7 -11 7 -20 17 -10 18 -9 13 6 -6 14 -4 15 9 4
11 -9 18 -10 23 -2 3 5 2 10 -4 10 -5 0 -15 2 -23 5 -7 3 -18 1 -25 -3z"/>
<path d="M5067 4619 c4 -13 8 -18 11 -10 2 7 -1 18 -6 23 -8 8 -9 4 -5 -13z"/>
<path d="M5133 4625 c0 -8 4 -12 9 -9 5 3 6 10 3 15 -9 13 -12 11 -12 -6z"/>
<path d="M4993 4585 c0 -8 7 -15 15 -15 7 0 12 5 10 12 -6 18 -25 21 -25 3z"/>
<path d="M5131 4563 c11 -3 15 -13 13 -31 -2 -15 -1 -19 2 -9 3 9 10 15 15 11
13 -7 7 19 -6 28 -5 4 -17 7 -25 7 -12 -1 -12 -2 1 -6z"/>
<path d="M5215 4561 c-3 -5 -2 -12 3 -15 5 -3 9 1 9 9 0 17 -3 19 -12 6z"/>
<path d="M4974 4548 c-3 -4 4 -8 15 -8 11 0 22 4 26 9 3 6 -4 9 -16 8 -11 -1
-23 -5 -25 -9z"/>
<path d="M5110 4541 c0 -5 5 -13 10 -16 6 -3 10 -2 10 4 0 5 -4 13 -10 16 -5
3 -10 2 -10 -4z"/>
<path d="M5189 4534 c6 -12 7 -25 3 -29 -4 -5 -2 -5 5 -2 6 4 14 1 16 -5 4
-10 6 -10 6 0 2 20 1 22 -4 20 -2 -2 -11 6 -20 17 -16 20 -16 20 -6 -1z"/>
<path d="M5199 4477 c6 -8 7 -18 3 -22 -4 -5 -1 -5 6 -1 10 6 10 11 1 22 -6 8
-14 14 -16 14 -3 0 0 -6 6 -13z"/>
<path d="M5171 4431 c-14 -9 -5 -18 17 -17 14 1 18 19 5 23 -4 2 -14 -1 -22
-6z"/>
<path d="M14852 4044 c-33 -23 -45 -60 -31 -101 12 -39 34 -53 81 -53 48 0 75
23 80 67 8 62 -22 102 -77 103 -17 0 -41 -7 -53 -16z"/>
<path d="M11115 4010 c-3 -5 -32 -15 -65 -22 -47 -9 -57 -15 -48 -25 20 -24
62 -15 98 22 19 19 31 35 28 35 -4 0 -10 -4 -13 -10z"/>
<path d="M11711 2162 c-25 -81 -46 -152 -48 -158 -2 -5 18 -21 45 -33 l49 -23
16 -102 c9 -55 31 -199 49 -318 18 -120 35 -218 38 -218 5 0 241 849 244 874
1 8 -314 125 -339 126 -5 0 -30 -67 -54 -148z"/>
<path d="M5870 1923 c-98 -66 -195 -123 -311 -183 -57 -29 -105 -57 -107 -61
-2 -4 -10 -5 -18 -2 -8 3 -14 0 -14 -6 0 -6 -6 -11 -12 -11 -7 0 -65 -16 -128
-36 -63 -21 -121 -39 -127 -40 -16 -4 -17 -81 -2 -86 15 -5 21 -58 8 -58 -6 0
-7 5 -4 10 3 6 -1 10 -10 10 -11 0 -15 -5 -12 -14 4 -9 0 -13 -11 -12 -9 2
-18 9 -20 17 -3 11 -1 11 8 -1 9 -13 11 -12 8 5 -3 20 -9 21 -75 13 -7 -1 -13
-5 -13 -9 0 -4 -9 -6 -20 -4 -11 2 -20 -1 -20 -6 0 -6 -4 -8 -9 -5 -5 3 -14
-1 -21 -8 -9 -12 -7 -17 9 -26 17 -8 21 -8 21 4 0 8 8 13 18 12 9 -2 20 2 24
8 4 6 11 7 15 2 4 -5 3 -11 -4 -13 -8 -3 -10 -15 -6 -34 3 -17 0 -35 -7 -44
-7 -9 -10 -18 -6 -22 7 -8 57 17 51 26 -2 4 5 8 16 8 10 1 19 -2 19 -8 0 -5
-6 -9 -14 -9 -18 0 -46 -27 -45 -43 0 -9 2 -8 6 1 2 6 11 12 20 12 10 0 12 -6
8 -22 -7 -23 -7 -23 9 -3 15 20 15 20 11 -3 -2 -12 0 -20 5 -17 5 3 14 -4 20
-15 12 -22 1 -27 -19 -7 -10 10 -11 9 -6 -3 3 -10 -5 -22 -25 -33 -25 -15 -30
-16 -30 -3 0 8 5 18 12 22 7 4 8 3 4 -4 -4 -7 -2 -12 3 -12 6 0 11 3 12 8 0 4
2 15 4 25 3 17 2 17 -20 3 -24 -16 -41 -10 -25 8 6 8 2 16 -11 24 -18 11 -19
10 -15 -14 3 -15 11 -31 17 -35 7 -4 9 -13 6 -21 -5 -16 26 -41 38 -30 4 4 14
7 23 8 53 3 53 3 49 33 -3 17 -8 34 -11 39 -3 6 8 15 24 21 35 12 39 27 9 36
-13 5 -25 2 -31 -6 -7 -10 -8 -9 -3 6 5 16 4 18 -6 8 -16 -16 -39 -17 -39 -2
0 5 5 7 10 4 6 -3 10 -2 10 3 0 14 32 25 39 14 3 -5 19 -12 36 -15 26 -4 27
-4 12 8 -14 10 -15 14 -4 18 15 6 30 47 18 47 -11 0 -51 -36 -46 -41 10 -10
-45 -1 -58 9 -8 7 -17 9 -20 5 -8 -7 -37 15 -37 28 0 5 9 9 21 9 15 0 19 -5
15 -15 -3 -8 -2 -14 2 -14 4 1 9 0 12 -1 24 -9 41 -7 36 5 -6 17 20 53 30 42
5 -4 4 -11 -1 -15 -13 -9 -17 -32 -6 -32 15 0 27 24 26 51 0 14 5 26 11 26 7
0 10 -7 6 -15 -3 -10 -1 -13 6 -8 8 5 12 0 12 -14 0 -11 6 -20 13 -19 27 3 38
-2 35 -17 -2 -10 3 -19 10 -21 6 -3 12 1 12 9 0 18 -17 43 -30 44 -5 1 -14 2
-20 3 -21 2 -9 16 15 16 16 0 26 -7 29 -21 4 -15 13 -21 33 -20 26 1 32 14 24
51 0 3 -12 -2 -25 -10 -23 -15 -25 -15 -31 5 -5 15 -10 18 -19 11 -7 -6 -17
-6 -26 -1 -12 8 -10 10 7 10 19 0 22 5 19 36 -4 40 6 37 12 -4 2 -15 7 -29 13
-30 5 -2 7 -8 3 -13 -3 -5 2 -9 10 -9 9 0 17 5 17 10 1 6 2 16 3 23 1 11 8 13
36 9 6 -1 10 -13 10 -27 0 -14 -4 -25 -10 -25 -5 0 -10 -5 -10 -11 0 -6 8 -8
19 -4 10 3 24 -1 31 -10 7 -8 8 -15 3 -15 -5 0 -8 -15 -7 -32 l3 -33 -7 30
c-5 18 -10 25 -15 18 -4 -6 -3 -23 3 -38 7 -18 7 -32 0 -43 -9 -14 -10 -12 -4
7 5 20 3 23 -11 18 -9 -4 -24 -7 -33 -8 -11 0 -12 -2 -4 -6 6 -2 9 -10 5 -16
-5 -9 -3 -9 8 0 12 10 17 8 26 -7 10 -14 9 -19 -2 -24 -8 -3 -17 0 -21 6 -4 7
-10 5 -16 -6 -5 -9 -14 -14 -19 -10 -6 3 -10 -2 -9 -12 4 -34 0 -45 -12 -38
-6 4 -8 3 -5 -3 4 -6 19 -9 34 -7 24 4 25 3 8 -5 -11 -5 -14 -10 -7 -10 7 -1
17 -12 24 -26 6 -13 15 -22 20 -19 4 3 1 12 -7 21 -9 9 -14 22 -11 30 4 8 -4
23 -16 32 l-21 18 21 5 c14 4 25 1 30 -9 7 -12 10 -12 21 1 11 14 11 16 -5 16
-16 0 -17 2 -4 10 8 5 15 15 15 22 0 7 7 13 15 13 8 0 15 7 15 15 0 9 7 23 15
32 13 14 16 14 28 -1 7 -9 11 -10 7 -3 -4 7 -1 20 6 28 10 12 9 13 -4 9 -8 -4
-18 -1 -23 6 -4 8 -3 10 4 5 7 -4 12 -2 12 4 0 6 4 9 9 5 14 -8 22 10 15 30
-5 13 -8 14 -15 3 -5 -7 -9 -8 -9 -2 0 6 -7 11 -15 11 -8 0 -15 -7 -15 -14 0
-8 5 -11 10 -8 6 3 10 1 10 -4 0 -6 -4 -11 -8 -11 -5 0 -13 -12 -20 -27 l-11
-28 5 32 c4 24 0 41 -16 63 -12 16 -17 30 -12 30 6 0 12 -5 14 -11 5 -14 40
-19 55 -7 7 5 14 5 17 -1 4 -5 15 -8 26 -6 11 2 22 0 25 -6 4 -5 1 -9 -5 -9
-6 0 -8 -5 -4 -12 4 -7 3 -8 -4 -4 -7 4 -12 1 -12 -8 0 -9 -4 -16 -8 -16 -4 0
-8 -9 -9 -20 -1 -11 2 -18 8 -15 5 4 9 2 9 -4 0 -5 -6 -12 -12 -14 -8 -3 -6
-6 5 -6 10 -1 17 -9 17 -21 0 -14 -5 -18 -17 -13 -15 6 -16 5 -3 -9 8 -8 22
-14 30 -13 8 2 20 4 25 5 6 0 3 6 -6 13 -9 7 -14 21 -13 32 2 11 1 27 -3 35
-14 33 -12 42 5 28 13 -11 15 -10 10 9 -4 13 -2 26 3 29 5 3 9 -6 9 -20 0 -16
6 -26 15 -26 8 0 15 -5 15 -11 0 -6 -7 -8 -16 -5 -12 5 -15 2 -10 -10 3 -8 6
-19 6 -22 0 -4 5 0 10 8 8 13 10 12 10 -2 0 -10 -7 -18 -15 -18 -8 0 -15 -4
-15 -10 0 -9 14 -14 33 -11 4 0 7 -4 7 -10 0 -5 4 -8 9 -4 5 3 12 1 16 -5 13
-21 25 -9 19 18 -4 15 -3 23 2 19 12 -11 14 -67 2 -67 -6 0 -17 8 -24 18 -13
16 -13 16 -14 -3 0 -15 -2 -17 -9 -7 -7 11 -9 10 -14 -3 -5 -11 -3 -14 5 -9 8
5 9 2 5 -9 -3 -9 -2 -19 2 -22 5 -2 11 3 14 14 3 13 11 17 33 14 27 -4 29 -2
29 30 0 19 -6 41 -13 49 -10 12 -9 18 3 28 10 9 15 9 15 1 0 -6 -4 -11 -10
-11 -5 0 -2 -9 7 -20 9 -11 19 -17 21 -15 3 3 0 11 -7 18 -9 11 -8 17 5 28 13
11 17 10 26 -2 7 -11 9 -9 5 8 -3 13 1 24 10 27 11 4 13 1 8 -15 -6 -18 -5
-20 14 -10 12 7 21 8 21 4 0 -4 5 -1 10 7 7 12 9 11 8 -5 -2 -18 28 -75 39
-75 2 0 1 5 -2 10 -3 6 -1 10 6 10 6 0 17 7 24 17 7 9 17 13 23 9 16 -10 15
-29 -1 -23 -9 3 -13 -4 -13 -24 0 -31 15 -43 37 -27 11 8 10 9 -4 4 -11 -3
-16 -2 -12 4 3 6 14 10 23 10 12 0 13 3 4 12 -15 15 -15 28 -1 28 5 0 7 -4 4
-10 -4 -6 1 -7 11 -3 13 5 16 3 11 -10 -3 -9 -2 -17 3 -17 15 0 8 49 -8 55 -8
3 -10 0 -6 -8 5 -9 4 -9 -6 0 -9 8 -9 16 -1 30 8 14 11 15 11 3 3 -31 19 26
19 65 0 35 -1 37 -10 16 -5 -13 -7 -33 -3 -44 4 -12 2 -17 -4 -13 -5 3 -13 -1
-16 -10 -3 -8 -11 -12 -18 -8 -7 5 -9 1 -6 -14 5 -18 3 -19 -13 -9 -13 8 -15
13 -6 19 8 5 5 8 -8 8 -15 0 -17 2 -6 9 11 7 11 9 0 14 -12 4 -11 7 1 16 12 8
16 6 18 -9 2 -11 8 -20 14 -20 6 0 8 9 5 21 -4 16 -3 18 9 8 15 -13 16 -10 17
69 0 34 2 39 11 27 9 -13 12 -7 12 29 1 25 -2 43 -7 40 -5 -3 -9 0 -9 5 0 6 5
11 10 11 7 0 9 65 5 192 -3 105 -6 192 -8 193 -1 1 -31 -18 -67 -42z m53 -192
c3 -11 -1 -22 -8 -24 -8 -4 -10 3 -7 19 5 29 8 30 15 5z m-333 -5 c0 -7 -8
-20 -17 -27 -16 -13 -17 -12 -5 3 8 9 11 22 7 28 -3 5 -1 10 4 10 6 0 11 -6
11 -14z m105 -36 c3 -6 -1 -7 -9 -4 -18 7 -21 14 -7 14 6 0 13 -4 16 -10z m29
-15 c-4 -8 -8 -15 -10 -15 -2 0 -4 7 -4 15 0 8 4 15 10 15 5 0 7 -7 4 -15z
m206 -16 c0 -6 -6 -9 -14 -6 -10 4 -16 -2 -19 -16 -3 -12 -4 -6 -3 14 1 32 3
36 19 28 9 -5 17 -15 17 -20z m-440 5 c0 -2 -7 -4 -15 -4 -8 0 -15 4 -15 10 0
5 7 7 15 4 8 -4 15 -8 15 -10z m155 -23 c-6 -5 -25 10 -25 20 0 5 6 4 14 -3 8
-7 12 -15 11 -17z m138 -29 c-6 -24 -18 -28 -29 -10 -4 6 -3 8 4 4 6 -3 14 3
17 15 9 27 16 20 8 -9z m150 13 c4 -8 1 -17 -6 -21 -7 -4 -9 -4 -5 1 4 4 3 14
-3 22 -7 8 -8 13 -1 13 5 0 12 -7 15 -15z m-336 -17 c-3 -8 -6 -5 -6 6 -1 11
2 17 5 13 3 -3 4 -12 1 -19z m-20 -10 c-3 -8 -6 -5 -6 6 -1 11 2 17 5 13 3 -3
4 -12 1 -19z m130 -10 c-7 -17 -18 -33 -25 -34 -7 -1 -8 0 -2 3 5 2 8 9 4 14
-3 5 0 9 6 9 7 0 10 6 7 14 -5 12 1 19 21 25 1 1 -4 -13 -11 -31z m94 1 c-5
-13 -10 -19 -10 -12 -1 15 10 45 15 40 3 -2 0 -15 -5 -28z m-246 11 c3 -5 1
-10 -4 -10 -6 0 -11 5 -11 10 0 6 2 10 4 10 3 0 8 -4 11 -10z m92 -41 c3 -19
2 -19 -13 -5 -8 9 -12 21 -9 27 9 13 18 4 22 -22z m191 -1 c-13 -35 -15 -35
-14 0 1 16 6 29 12 29 9 0 9 -8 2 -29z m-364 8 c-21 -15 -30 -14 -19 3 3 6 14
11 23 11 13 0 13 -2 -4 -14z m297 -9 c-10 -9 -11 -8 -5 6 3 10 9 15 12 12 3
-3 0 -11 -7 -18z m-376 -8 c-5 -23 -13 -35 -19 -28 -5 5 12 49 18 49 3 0 3
-10 1 -21z m335 -4 c4 3 10 -4 13 -15 3 -13 1 -18 -6 -13 -7 4 -8 0 -4 -11 4
-11 3 -15 -4 -11 -6 4 -8 13 -5 21 3 8 1 14 -4 14 -6 0 -10 8 -9 18 0 10 3 12
6 4 2 -6 8 -10 13 -7z m79 -32 c1 -7 -6 -13 -14 -13 -8 0 -15 -4 -15 -10 0
-22 -15 -8 -16 15 -1 14 2 25 8 25 5 0 6 -4 3 -10 -3 -5 1 -10 10 -10 11 0 14
7 10 28 -4 22 -4 24 4 7 5 -11 10 -26 10 -32z m116 37 c3 -5 1 -10 -4 -10 -6
0 -11 5 -11 10 0 6 2 10 4 10 3 0 8 -4 11 -10z m-30 -31 c1 -16 -3 -19 -23
-17 -14 2 -27 9 -28 16 -1 7 0 8 3 2 2 -5 11 -10 19 -10 13 0 19 13 14 35 -1
6 2 7 6 2 4 -4 8 -17 9 -28z m-457 -5 c19 -13 26 -14 40 -3 14 11 15 11 5 -1
-7 -8 -13 -23 -14 -34 0 -20 -1 -20 -9 1 -5 12 -22 29 -37 37 -15 8 -23 15
-18 16 6 0 21 -7 33 -16z m87 -2 c-3 -3 -11 0 -18 7 -9 10 -8 11 6 5 10 -3 15
-9 12 -12z m58 11 c-7 -2 -13 -9 -13 -14 0 -4 7 -6 16 -2 14 5 15 3 5 -15 -12
-22 -36 -20 -45 4 -5 13 19 34 39 33 6 0 4 -3 -2 -6z m-239 -15 c-3 -4 -9 -8
-15 -8 -5 0 -9 4 -9 8 0 5 7 9 15 9 8 0 12 -4 9 -9z m282 -3 c-3 -8 -1 -15 4
-15 5 0 10 -12 12 -27 2 -18 8 -27 17 -25 8 2 18 -3 22 -10 7 -10 9 -9 9 5 0
9 -4 17 -9 17 -20 0 -17 27 5 47 l23 21 -6 -29 c-4 -21 -2 -29 8 -29 12 0 12
-2 0 -9 -8 -5 -11 -16 -8 -26 4 -9 3 -14 -3 -10 -6 3 -10 2 -10 -3 0 -6 -7
-13 -16 -16 -14 -5 -15 -4 -5 8 8 10 9 16 1 21 -5 3 -10 0 -10 -7 -1 -7 -9 -3
-20 11 -12 14 -20 18 -20 10 -1 -11 -3 -10 -10 2 -9 16 -8 32 5 62 9 21 19 23
11 2z m-403 -14 c-4 -3 -11 -10 -15 -15 -5 -5 -8 0 -8 12 0 15 4 20 16 15 9
-3 12 -9 7 -12z m85 -6 c-3 -3 -9 2 -12 12 -6 14 -5 15 5 6 7 -7 10 -15 7 -18z
m202 -1 c-8 -8 -9 -14 -4 -13 17 3 34 -1 34 -8 0 -5 -10 -8 -23 -8 -17 0 -23
6 -23 23 0 12 6 22 14 22 12 0 12 -3 2 -16z m-95 -4 c3 -5 -1 -10 -10 -10 -9
0 -13 5 -10 10 3 6 8 10 10 10 2 0 7 -4 10 -10z m452 3 c-3 -5 -1 -17 4 -28 7
-19 8 -19 8 3 1 24 15 29 27 10 4 -7 3 -8 -4 -4 -8 5 -12 -2 -12 -19 0 -14 -4
-24 -8 -21 -5 3 -21 -6 -37 -20 -24 -21 -26 -28 -5 -26 12 1 9 -47 -4 -57 -10
-8 -16 -7 -26 4 -7 9 -10 18 -6 22 3 3 6 1 6 -5 0 -7 8 -12 18 -11 10 0 12 3
5 6 -7 2 -13 14 -13 24 0 13 -4 18 -12 13 -7 -4 -8 -3 -4 4 4 6 3 20 -2 29
-12 22 1 58 21 66 9 3 18 0 21 -8 3 -9 0 -12 -8 -9 -8 3 -17 1 -20 -4 -3 -5 5
-9 17 -8 12 0 23 8 23 16 3 26 4 30 10 30 3 0 3 -3 1 -7z m-117 -13 c0 -5 -5
-10 -11 -10 -5 0 -7 5 -4 10 3 6 8 10 11 10 2 0 4 -4 4 -10z m-315 -10 c-3 -5
-12 -10 -18 -10 -7 0 -6 4 3 10 19 12 23 12 15 0z m147 -15 c11 -14 25 -25 33
-25 8 0 11 -7 8 -20 -7 -25 20 -36 53 -22 15 8 24 8 24 2 0 -14 -49 -32 -62
-24 -7 5 -8 2 -3 -6 5 -9 2 -10 -14 -5 -17 5 -21 2 -21 -14 0 -12 5 -21 11
-21 5 0 7 -5 3 -11 -11 -18 -24 12 -22 53 1 29 4 35 14 27 9 -8 11 -5 7 11 -6
22 -36 43 -47 32 -4 -3 -4 1 0 11 3 10 1 17 -5 17 -6 0 -11 5 -11 10 0 17 11
11 32 -15z m197 -5 c-7 -5 -18 -6 -24 -2 -6 4 -3 8 8 10 9 2 17 9 18 15 0 7 3
7 6 -2 3 -7 -1 -17 -8 -21z m-699 16 c0 -11 -19 -15 -25 -6 -3 5 1 10 9 10 9
0 16 -2 16 -4z m705 -45 c3 -9 3 -12 0 -9 -4 4 -19 2 -33 -3 -21 -8 -23 -7
-14 4 7 8 9 17 6 20 -4 3 3 5 15 4 11 -1 23 -8 26 -16z m-201 -16 c-6 -16 -24
-21 -24 -7 0 11 11 22 21 22 5 0 6 -7 3 -15z m-414 -94 c0 -8 -40 -27 -47 -22
-9 5 1 16 12 13 7 -1 16 2 20 8 8 13 15 13 15 1z m-44 -96 c-8 -8 -17 -15 -20
-15 -3 0 -3 7 0 15 4 8 13 15 21 15 12 0 12 -2 -1 -15z"/>
<path d="M5670 1476 c0 -2 7 -9 15 -16 13 -11 14 -10 9 4 -5 14 -24 23 -24 12z"/>
<path d="M5809 1429 c-13 -7 0 -16 19 -13 6 1 17 2 22 3 6 0 10 5 10 9 0 9
-37 10 -51 1z"/>
<path d="M5120 1480 c0 -13 11 -13 30 0 12 8 11 10 -7 10 -13 0 -23 -4 -23
-10z"/>
<path d="M5330 1476 c0 -2 7 -7 16 -10 8 -3 12 -2 9 4 -6 10 -25 14 -25 6z"/>
<path d="M4759 1320 c-107 -47 -205 -89 -217 -95 -20 -10 -19 -14 52 -200 40
-104 84 -217 97 -250 l24 -60 183 -3 c123 -2 182 1 182 8 0 20 -40 89 -72 125
-17 20 -48 45 -70 56 l-38 19 0 109 0 110 54 11 53 11 -13 54 c-6 30 -8 53 -3
49 5 -3 9 0 9 5 0 6 -4 11 -10 11 -5 0 -10 9 -10 20 0 18 3 19 20 10 12 -6 20
-7 20 -1 0 5 -5 11 -11 13 -5 2 -7 11 -4 21 4 9 11 14 16 11 14 -8 10 3 -7 20
-14 15 -14 16 1 16 9 0 13 5 10 10 -11 18 -25 10 -40 -22 -14 -31 -15 -32 -11
-6 1 15 0 25 -5 23 -4 -3 -9 -2 -11 3 -1 4 -91 -31 -199 -78z"/>
<path d="M5355 1390 c-14 -15 -22 -17 -37 -9 -18 9 -18 8 -8 -10 6 -12 13 -21
16 -21 3 0 3 4 0 9 -4 5 3 7 14 4 14 -4 20 -1 18 8 -2 7 3 13 10 14 6 0 12 4
13 8 2 18 -8 16 -26 -3z"/>
<path d="M5225 1350 c0 -22 -4 -40 -10 -40 -5 0 -2 -5 8 -11 10 -6 14 -15 10
-22 -4 -7 5 -4 21 6 27 18 28 18 49 0 15 -12 18 -13 9 -2 -6 9 -8 20 -4 24 4
5 2 5 -5 2 -6 -4 -14 -1 -16 5 -4 10 -8 9 -16 -2 -8 -11 -11 -12 -11 -2 0 8
-5 10 -12 6 -7 -4 -10 -4 -6 1 4 4 3 14 -3 22 -9 9 -8 13 0 13 6 0 11 -4 11
-10 0 -5 5 -10 10 -10 6 0 10 7 10 15 0 8 -4 15 -10 15 -5 0 -10 7 -10 15 0 8
-6 15 -13 15 -8 0 -12 -14 -12 -40z"/>
<path d="M5283 1336 c4 -13 50 -16 69 -5 7 4 9 11 5 16 -4 4 -17 2 -27 -5 -11
-7 -20 -8 -20 -4 0 5 -7 9 -15 9 -9 0 -14 -5 -12 -11z"/>
<path d="M5695 1307 c0 -19 -5 -31 -12 -30 -6 1 -10 -5 -8 -15 2 -9 4 -30 5
-47 2 -29 2 -29 9 -5 7 24 7 24 20 5 11 -17 12 -17 7 -2 -3 10 -6 23 -6 28 0
5 -8 9 -17 9 -12 0 -8 8 15 28 32 29 43 59 18 49 -7 -3 -18 -1 -22 3 -5 5 -9
-4 -9 -23z"/>
<path d="M5753 1320 c-1 -16 1 -17 12 -7 7 6 11 15 8 20 -8 13 -19 7 -20 -13z"/>
<path d="M5433 1306 c17 -13 25 -32 8 -22 -5 3 -14 -1 -21 -9 -8 -9 -8 -15 -2
-15 6 0 13 6 15 13 4 9 6 8 6 -2 1 -11 4 -11 16 -1 18 15 3 50 -23 50 -16 -1
-16 -2 1 -14z"/>
<path d="M10667 1313 c-2 -4 -7 -19 -10 -33 -5 -21 -20 -30 -84 -52 -226 -77
-535 -192 -527 -195 17 -6 909 -71 913 -67 4 3 50 301 51 326 0 11 -50 16
-201 23 -75 4 -139 3 -142 -2z"/>
<path d="M5787 1303 c-4 -3 -7 -17 -7 -30 0 -12 -5 -23 -11 -23 -7 0 -9 9 -6
21 4 16 3 18 -8 9 -8 -6 -11 -18 -8 -26 3 -10 0 -12 -10 -8 -12 4 -14 1 -10
-16 5 -19 7 -20 15 -6 5 9 17 16 27 16 13 0 20 9 24 33 5 35 4 41 -6 30z"/>
<path d="M5165 1265 c-11 -8 -15 -15 -10 -14 6 1 19 0 30 -1 17 -2 16 -3 -5
-10 -24 -7 -24 -8 -5 -16 11 -4 26 -15 33 -23 11 -14 11 -14 6 2 -9 26 4 53
18 39 18 -18 32 -14 18 3 -7 9 -19 14 -27 11 -7 -3 -13 -1 -13 5 0 6 -4 8 -9
5 -5 -4 -11 -1 -13 4 -2 7 -11 5 -23 -5z"/>
<path d="M5260 1270 c-12 -8 -10 -10 8 -10 13 0 20 4 17 10 -7 12 -6 12 -25 0z"/>
<path d="M5815 1260 c-9 -15 -1 -23 21 -18 15 3 16 4 1 16 -11 9 -17 10 -22 2z"/>
<path d="M5270 1234 c0 -8 5 -12 10 -9 6 3 10 10 10 16 0 5 -4 9 -10 9 -5 0
-10 -7 -10 -16z"/>
<path d="M5415 1240 c-3 -5 -1 -10 4 -10 6 0 11 5 11 10 0 6 -2 10 -4 10 -3 0
-8 -4 -11 -10z"/>
<path d="M5443 1218 c1 -21 13 -24 20 -5 4 7 8 4 12 -9 5 -15 12 -20 26 -17
14 4 18 1 13 -10 -3 -8 -2 -17 3 -20 4 -3 8 10 8 28 0 26 -3 31 -13 23 -9 -8
-16 -8 -25 1 -9 9 -9 14 1 20 8 5 2 8 -17 8 -22 0 -29 -5 -28 -19z"/>
<path d="M5233 1208 c9 -15 15 -33 14 -40 -2 -7 -2 -10 0 -5 3 4 9 7 14 7 6 0
7 -5 4 -10 -4 -6 -3 -10 2 -9 22 4 25 -3 9 -20 -17 -19 -17 -19 1 -15 26 7 26
41 1 58 -13 9 -17 19 -12 28 4 7 3 10 -1 5 -5 -4 -18 1 -29 10 -20 18 -20 18
-3 -9z"/>
<path d="M5550 1210 c-13 -8 -13 -11 -1 -22 8 -8 11 -8 7 -1 -3 6 0 13 6 16 7
2 11 7 8 10 -3 3 -12 2 -20 -3z"/>
<path d="M5614 1205 c3 -21 16 -31 16 -12 0 9 -4 18 -9 21 -5 4 -8 -1 -7 -9z"/>
<path d="M5643 1210 c3 -16 21 -14 25 2 3 10 2 10 -6 -1 -7 -9 -11 -10 -15 -2
-4 7 -5 8 -4 1z"/>
<path d="M5361 1174 c0 -11 3 -14 6 -6 3 7 2 16 -1 19 -3 4 -6 -2 -5 -13z"/>
<path d="M5387 1161 c-4 -17 -3 -21 5 -13 5 5 8 16 6 23 -3 8 -7 3 -11 -10z"/>
<path d="M5088 1163 c6 -3 9 -9 6 -15 -4 -6 2 -5 15 1 27 15 27 16 -7 17 -15
1 -21 -1 -14 -3z"/>
<path d="M5215 1160 c-4 -6 -10 -8 -15 -5 -5 3 -11 1 -14 -4 -8 -13 22 -7 36
7 7 7 9 12 6 12 -4 0 -10 -5 -13 -10z"/>
<path d="M5020 1145 c-9 -10 -9 -15 -1 -15 6 0 11 5 11 11 0 5 5 7 10 4 6 -3
10 -1 10 4 0 16 -16 13 -30 -4z"/>
<path d="M5147 1141 c-3 -13 0 -18 7 -15 7 3 13 11 13 19 0 22 -14 18 -20 -4z"/>
<path d="M5418 1133 c7 -3 16 -2 19 1 4 3 -2 6 -13 5 -11 0 -14 -3 -6 -6z"/>
<path d="M5025 1119 c-16 -6 -16 -8 -3 -8 9 -1 23 -4 32 -7 11 -4 16 0 16 12
0 15 -2 16 -9 5 -5 -7 -10 -9 -12 -3 -2 5 -12 6 -24 1z"/>
<path d="M6163 1116 c-61 -6 -114 -13 -116 -16 -3 -3 -8 -98 -12 -212 l-7
-208 416 0 c229 0 416 2 416 4 0 3 -110 80 -245 171 l-245 167 0 54 0 54 -47
-1 c-27 -1 -98 -7 -160 -13z"/>
<path d="M5150 1089 c0 -5 5 -7 10 -4 6 3 10 8 10 11 0 2 -4 4 -10 4 -5 0 -10
-5 -10 -11z"/>
<path d="M1259 1051 c-69 -69 -1 -171 93 -139 82 29 55 168 -32 168 -21 0 -41
-9 -61 -29z"/>
</g>
</svg>
