<?xml version="1.0" encoding="UTF-8" standalone="no"?><svg id="Bombillo" xmlns="http://www.w3.org/2000/svg" viewBox="0 0 161.94 255.13"><defs><style>.cls-1{fill:#ffc300;}.cls-1,.cls-2{stroke:#ffc300;}.cls-1,.cls-2,.cls-3,.cls-4,.cls-5,.cls-6{stroke-miterlimit:10;}.cls-1,.cls-2,.cls-3,.cls-4{stroke-width:6px;}.cls-2,.cls-5,.cls-6{fill:none;}.cls-3{fill:#c70039;stroke:#c70039;}.cls-4{fill:#d84173;stroke:#d84173;}.cls-5,.cls-6{stroke:#571845;stroke-width:12px;}.cls-6{stroke-linecap:round;}</style></defs><path class="cls-1" d="M283.4,183.15a77.35,77.35,0,0,0-47.19,16c2.58,2.07,3.34,6.23-.44,7.92-12.79,5.71-20.59,19.69-25.64,32.25-3.21,8-2.15,17.35-1.3,25.68.66,6.5,1.59,12.94,2.09,19.44,4.08.91,8.25,1.42,12.41,2.24,6.32,1.24,3.63,10.88-2.66,9.64-.64-.13-1.29-.24-1.93-.35,7.42,8.93,14.19,18.36,18.57,29.19,8.9,5.82,6.45,17.09,9.26,26.51a5.38,5.38,0,0,1,.23,1.43L323.31,356c.4-20.66,11.83-35.43,16.11-40.24a39.63,39.63,0,0,0,3.32-4.21c8.67-13,17.43-30.29,18.58-50.16C363.81,218.26,326.43,183.15,283.4,183.15Z" transform="translate(-202.5 -178.9)"/><path class="cls-2" d="M328.17,310.39" transform="translate(-202.5 -178.9)"/><path class="cls-1" d="M325.09,351.67c.86-18.92,15.36-37.33,14-35.46l1-1.46c1.29-1.89,2.72-3.69,4.15-5.48A78.31,78.31,0,0,0,283.53,181.9c-43,0-80.4,35.11-77.91,78.25,1.15,19.87,9.91,37.21,18.58,50.16a39.75,39.75,0,0,0,3.32,4.22c4.27,4.81,15.71,19.57,16.11,40.23" transform="translate(-202.5 -178.9)"/><rect class="cls-3" x="24.5" y="226.71" width="112.94" height="25.42" rx="12.71"/><rect class="cls-4" x="24.5" y="201.28" width="112.94" height="25.42" rx="12.71"/><rect class="cls-5" x="62.09" y="120.86" width="37.73" height="61.47"/><line class="cls-6" x1="62.11" y1="120.86" x2="32.81" y2="77.59"/><circle class="cls-6" cx="80.97" cy="81" r="18.22"/><line class="cls-6" x1="99.83" y1="120.86" x2="129.13" y2="77.59"/><rect class="cls-3" x="24.5" y="175.86" width="112.94" height="25.42" rx="12.71"/></svg>